<?xml version="1.0" encoding="utf-8"?>
<!-- Generator: Adobe Illustrator 16.0.0, SVG Export Plug-In . SVG Version: 6.00 Build 0)  -->
<!DOCTYPE svg PUBLIC "-//W3C//DTD SVG 1.1//EN" "http://www.w3.org/Graphics/SVG/1.1/DTD/svg11.dtd">
<svg version="1.1" xmlns="http://www.w3.org/2000/svg" xmlns:xlink="http://www.w3.org/1999/xlink" x="0px" y="0px" width="151px"
	 height="151px" viewBox="0 0 151 151" enable-background="new 0 0 151 151" xml:space="preserve">
<g id="BACKGROUND" display="none">
	<rect x="-291" y="-43.194" display="inline" fill="#FFFFFF" width="500" height="500"/>
</g>
<g id="OBJECTS">
	<g display="none">
		<polygon display="inline" fill="#A5CD41" points="-93.148,167.956 -206.36,167.956 -203.245,161.531 -206.36,155.106 
			-93.148,155.106 -96.263,161.531 		"/>
		<g display="inline">
			<path fill="#73932C" d="M-220.015,87.076c0,0,4.357,15.719,4.453,17.226c0.096,1.507,38.802,19.655,45.084,22.622l-5.789-22.337
				L-220.015,87.076z"/>
			<path fill="#628024" d="M-97.034,36.822c0,0,4.4,18.158,3.836,19.529s-75.197,70.339-77.281,70.572
				c-2.083,0.234-6.345-18.572-6.345-18.572l26.44-49.265L-97.034,36.822z"/>
			<path fill="#A5CD41" d="M-141.448,15.558c2.117,0.787,42.883,18.904,44.414,21.265s-78.067,71.083-79.79,71.529
				s-41.374-18.989-43.191-21.275C-221.833,84.791-144.17,14.545-141.448,15.558z"/>
			<path fill="#D8E15C" d="M-142.114,21.051c0,0,34.72,15.306,35.959,17.217c1.239,1.911-69.534,63.302-70.928,63.664
				c-1.395,0.361-33.498-15.375-34.969-17.226C-213.524,82.855-144.318,20.231-142.114,21.051z"/>
			<path fill="#A5CD41" d="M-108.158,35.269c1.797-0.466,3.685,0.646,4.151,2.441c0.466,1.798-0.645,3.686-2.442,4.151
				s-3.685-0.645-4.151-2.442C-111.066,37.623-109.955,35.734-108.158,35.269z"/>
			<path fill="#A5CD41" d="M-143.147,17.275c5.12-1.326,7.177,6.611,2.058,7.938S-148.267,18.603-143.147,17.275z"/>
			<path fill="#A5CD41" d="M-178.377,96.446c2.219-0.575,4.55,0.797,5.125,3.016c0.575,2.219-0.797,4.55-3.015,5.125
				c-2.219,0.575-4.55-0.797-5.125-3.016C-181.968,99.353-180.596,97.021-178.377,96.446z"/>
			<path fill="#A5CD41" d="M-162.815,45.406c8.634-2.238,17.706,3.1,19.944,11.733s-3.1,17.706-11.733,19.944
				c-8.634,2.237-17.706-3.1-19.944-11.734C-176.787,56.716-171.449,47.644-162.815,45.406z"/>
			<path fill="#A5CD41" d="M-211.854,80.746c6.204-1.607,8.697,8.013,2.493,9.621C-215.564,91.975-218.058,82.354-211.854,80.746z"
				/>
			<path fill="#F6921E" d="M-127.502,66.047c0,0,5.088,17.861,4.718,18.203s-13.116,12.063-13.041,11.994
				s-7.104-16.611-7.104-16.611L-127.502,66.047z"/>
			<path fill="#FCB912" d="M-171.974,40.678l44.472,25.369c0,0-14.214,14.78-15.427,13.586s-42.306-24.674-43.626-25.799
				S-173.936,39.559-171.974,40.678z"/>
			<path fill="#A5CD41" d="M-192.615,80.323c0.533,0.854,1.611,0.099,1.606-0.675c-0.006-1.108,0.654-2.131,1.619-2.944
				c1.74,1.594,3.496,3.173,5.274,4.733c-0.817,1.808-1.378,3.83-0.767,5.768c1.442,4.57,6.576,4.677,10.348,2.518
				c0.277,0.237,0.555,0.477,0.832,0.714c0.827,0.712,2.325-0.368,1.746-1.36c-0.177-0.304-0.371-0.595-0.561-0.888
				c1.799-1.758,2.788-4.147,1.877-6.741c-0.405-1.154-2.325-1.195-2.696,0.014c-0.42,1.368-0.78,2.668-1.479,3.711
				c-1.479-1.664-3.158-3.155-4.934-4.553c1.194-2.694,2.159-5.476-0.283-7.768c-2.27-2.131-6.886-1.5-10.035,0.474
				c-0.374-0.27-0.745-0.539-1.109-0.813c-0.992-0.743-1.984,0.688-1.127,1.501c0.207,0.195,0.421,0.385,0.629,0.58
				C-193.26,76.176-193.935,78.205-192.615,80.323z M-182.649,78.463c-1.477-1.047-2.979-2.062-4.462-3.074
				c1.426-0.535,2.954-0.668,4.045-0.173C-181.837,75.773-182.113,77.182-182.649,78.463z M-181.161,84.015
				c1.197,1.036,2.392,2.071,3.59,3.101c-1.637,0.445-4.262,0.316-3.862-2.041C-181.375,84.73-181.275,84.375-181.161,84.015z"/>
			<path fill="#A5CD41" d="M-146.894,42.268c0.533,0.854,1.611,0.1,1.607-0.674c-0.007-1.108,0.653-2.131,1.619-2.944
				c1.74,1.594,3.497,3.173,5.274,4.733c-0.817,1.808-1.378,3.83-0.767,5.768c1.442,4.57,6.576,4.677,10.348,2.518
				c0.276,0.237,0.555,0.477,0.831,0.714c0.827,0.712,2.326-0.368,1.746-1.361c-0.177-0.304-0.371-0.594-0.561-0.887
				c1.8-1.759,2.788-4.147,1.877-6.741c-0.405-1.154-2.325-1.195-2.696,0.014c-0.42,1.368-0.78,2.668-1.479,3.711
				c-1.478-1.664-3.157-3.155-4.934-4.553c1.194-2.694,2.159-5.476-0.283-7.768c-2.27-2.131-6.886-1.501-10.035,0.473
				c-0.373-0.269-0.744-0.538-1.109-0.812c-0.991-0.743-1.984,0.688-1.127,1.501c0.207,0.195,0.421,0.385,0.628,0.58
				C-147.538,38.121-148.213,40.15-146.894,42.268z M-136.928,40.408c-1.476-1.048-2.979-2.062-4.461-3.074
				c1.426-0.535,2.954-0.668,4.045-0.173C-136.116,37.719-136.391,39.127-136.928,40.408z M-135.439,45.96
				c1.196,1.036,2.391,2.07,3.589,3.1c-1.637,0.446-4.262,0.316-3.862-2.04C-135.653,46.676-135.554,46.32-135.439,45.96z"/>
		</g>
		<g display="inline">
			<path fill="#84A734" d="M-90.773,62.492c0,0-0.274,16.309,0.011,17.792c0.286,1.482-32.628,28.763-37.966,33.21V90.419
				L-90.773,62.492z"/>
			<path fill="#73932C" d="M-222.429,44.701c0,0,0.296,18.681,1.186,19.867c0.89,1.186,90.439,49.223,92.515,48.926
				s1.482-19.57,1.482-19.57L-165.2,52.868L-222.429,44.701z"/>
			<path fill="#A5CD41" d="M-184.771,12.973c-1.851,1.294-36.769,29.06-37.658,31.729s93.405,49.223,95.184,49.223
				c1.779,0,35.286-28.763,36.472-31.432C-89.586,59.824-182.389,11.311-184.771,12.973z"/>
			<path fill="#D8E15C" d="M-182.748,18.124c0,0-29.769,23.526-30.489,25.688s83.192,43.832,84.632,43.832
				s28.568-23.287,29.529-25.447C-98.115,60.035-180.82,16.777-182.748,18.124z"/>
			<path fill="#A5CD41" d="M-212.05,40.406c-1.856,0-3.405,1.549-3.405,3.405s1.549,3.405,3.405,3.405s3.405-1.549,3.405-3.405
				S-210.194,40.406-212.05,40.406z"/>
			<path fill="#A5CD41" d="M-182.695,14.21c-5.288,0-5.288,8.201,0,8.201C-177.406,22.411-177.406,14.21-182.695,14.21z"/>
			<path fill="#A5CD41" d="M-128.728,82.01c-2.292,0-4.205,1.912-4.205,4.204s1.913,4.205,4.205,4.205s4.205-1.913,4.205-4.205
				S-126.436,82.01-128.728,82.01z"/>
			<path fill="#A5CD41" d="M-156.598,36.506c-8.919,0-16.362,7.443-16.362,16.362c0,8.92,7.442,16.362,16.362,16.362
				c8.919,0,16.362-7.442,16.362-16.362C-140.236,43.949-147.679,36.506-156.598,36.506z"/>
			<path fill="#A5CD41" d="M-100.262,58.412c-6.409,0-6.409,9.938,0,9.938C-93.853,68.351-93.853,58.412-100.262,58.412z"/>
			<path fill="#F6921E" d="M-185.603,65.346c0,0-0.444,18.568,0,18.807c0.443,0.237,15.723,8.385,15.633,8.337
				c-0.09-0.047,2.709-17.862,2.709-17.862L-185.603,65.346z"/>
			<path fill="#FCB912" d="M-148.918,29.632l-36.685,35.714c0,0,17.467,10.742,18.342,9.281c0.875-1.46,34.762-34.498,35.758-35.919
				C-130.507,37.288-147.3,28.057-148.918,29.632z"/>
			<path fill="#A5CD41" d="M-121.338,57.52c0.152-0.241,0.312-0.479,0.463-0.72c0.626-1.002-0.694-2.138-1.467-1.17
				c-0.285,0.356-0.576,0.71-0.87,1.064c-3.543-1.12-8.17-0.572-9.833,2.06c-1.789,2.832-0.157,5.282,1.674,7.591
				c-1.369,1.798-2.62,3.663-3.634,5.645c-0.938-0.835-1.612-2.003-2.362-3.222c-0.663-1.076-2.511-0.556-2.614,0.664
				c-0.23,2.738,1.326,4.804,3.509,6.055c-0.11,0.331-0.225,0.661-0.32,0.999c-0.312,1.106,1.41,1.776,2.032,0.88
				c0.208-0.3,0.417-0.601,0.625-0.9c4.193,1.144,9.136-0.247,9.385-5.033c0.106-2.029-0.944-3.846-2.189-5.391
				c1.33-1.957,2.634-3.926,3.918-5.905c1.139,0.545,2.034,1.37,2.306,2.444c0.19,0.75,1.423,1.21,1.725,0.25
				C-118.245,60.449-119.407,58.653-121.338,57.52z M-129.516,60.282c0.932-0.753,2.444-1.008,3.959-0.848
				c-1.181,1.353-2.381,2.711-3.547,4.095C-129.946,62.424-130.566,61.13-129.516,60.282z M-128.623,70.234
				c0.979,2.182-1.53,2.966-3.227,2.944c0.902-1.297,1.799-2.599,2.697-3.901C-128.952,69.598-128.766,69.916-128.623,70.234z"/>
			<path fill="#A5CD41" d="M-175.145,32.152c0.152-0.24,0.312-0.479,0.463-0.719c0.625-1.002-0.694-2.139-1.468-1.17
				c-0.284,0.355-0.576,0.71-0.87,1.064c-3.543-1.121-8.17-0.572-9.833,2.06c-1.789,2.831-0.157,5.281,1.675,7.591
				c-1.37,1.798-2.621,3.663-3.634,5.645c-0.938-0.835-1.612-2.002-2.362-3.222c-0.663-1.077-2.511-0.556-2.614,0.663
				c-0.23,2.74,1.326,4.805,3.509,6.056c-0.11,0.331-0.225,0.661-0.32,0.999c-0.312,1.106,1.41,1.775,2.032,0.879
				c0.208-0.299,0.417-0.6,0.625-0.899c4.193,1.144,9.136-0.247,9.385-5.033c0.106-2.029-0.945-3.846-2.189-5.391
				c1.329-1.957,2.633-3.927,3.917-5.905c1.139,0.545,2.034,1.369,2.306,2.443c0.19,0.751,1.423,1.211,1.725,0.25
				C-172.051,35.082-173.214,33.287-175.145,32.152z M-183.323,34.916c0.932-0.753,2.444-1.008,3.959-0.848
				c-1.182,1.353-2.381,2.711-3.547,4.095C-183.752,37.057-184.373,35.764-183.323,34.916z M-182.43,44.869
				c0.979,2.18-1.53,2.965-3.227,2.943c0.902-1.297,1.799-2.599,2.697-3.901C-182.758,44.23-182.573,44.55-182.43,44.869z"/>
		</g>
		<g display="inline">
			<g>
				<path fill="#3B550D" d="M-211.864,152.311c0-9.864,0-19.729,0-29.594c1.674,0.425,3.351,0.833,5.031,1.223
					c0.912,6.947,1.833,13.744,2.76,20.398c0.814-6.542,1.623-12.956,2.427-19.25c1.75,0.367,3.503,0.717,5.259,1.048
					c0.053,8.737,0.106,17.476,0.16,26.212c-1.224-0.002-2.449-0.005-3.673-0.008c-0.033-6.432-0.065-12.865-0.098-19.298
					c-0.809,6.31-1.622,12.738-2.441,19.292c-1.161-0.002-2.323-0.005-3.484-0.008c-0.933-6.632-1.858-13.408-2.775-20.339
					c0.011,6.777,0.022,13.555,0.033,20.332C-209.731,152.316-210.797,152.313-211.864,152.311z"/>
				<path fill="#3B550D" d="M-194.112,146.157c-0.029-4.478-0.059-8.955-0.088-13.433c-0.014-2.066,0.457-3.592,1.41-4.549
					c0.954-0.96,2.327-1.274,4.124-0.988c1.796,0.285,3.18,1.026,4.147,2.213c0.968,1.188,1.459,2.729,1.474,4.655
					c0.032,4.179,0.064,8.356,0.097,12.535c0.015,1.927-0.453,3.405-1.404,4.458c-0.951,1.052-2.326,1.591-4.125,1.592
					c-1.799,0.002-3.185-0.548-4.157-1.676C-193.606,149.838-194.099,148.224-194.112,146.157z M-190.44,146.56
					c0.012,1.667,0.657,2.514,1.936,2.54c1.268,0.025,1.896-0.773,1.883-2.397c-0.033-4.428-0.067-8.855-0.101-13.283
					c-0.012-1.608-0.653-2.497-1.919-2.672c-1.277-0.177-1.909,0.558-1.897,2.211C-190.505,137.492-190.473,142.025-190.44,146.56z"
					/>
				<path fill="#3B550D" d="M-180.553,152.375c-0.061-7.932-0.122-15.865-0.183-23.797c1.657,0.206,3.314,0.396,4.974,0.568
					c1.296,4.771,2.591,9.455,3.882,14.068c-0.03-4.567-0.061-9.135-0.091-13.702c1.099,0.098,2.199,0.188,3.299,0.272
					c0.045,7.534,0.09,15.068,0.135,22.604c-1.262-0.002-2.524-0.002-3.786-0.004c-1.556-5.531-3.118-11.161-4.682-16.921
					c0.042,5.639,0.083,11.277,0.125,16.916C-178.104,152.379-179.329,152.377-180.553,152.375z"/>
				<path fill="#3B550D" d="M-166.251,152.391c-0.041-7.48-0.081-14.961-0.122-22.441c3.362,0.224,6.728,0.382,10.094,0.472
					c0.002,1.048,0.005,2.095,0.007,3.142c-2.131-0.05-4.261-0.121-6.391-0.217c0.009,2.066,0.018,4.133,0.027,6.199
					c1.688,0.052,3.377,0.094,5.066,0.125c0.003,1.044,0.006,2.087,0.009,3.131c-1.687-0.023-3.374-0.056-5.061-0.095
					c0.01,2.17,0.02,4.34,0.029,6.51c2.119,0.017,4.239,0.03,6.358,0.038c0.002,1.047,0.005,2.094,0.007,3.142
					C-159.568,152.395-162.91,152.393-166.251,152.391z"/>
				<path fill="#3B550D" d="M-155.21,130.447c1.234,0.027,2.468,0.047,3.702,0.057c0.952,3.336,1.899,6.663,2.844,9.989
					c0.947-3.329,1.896-6.663,2.85-10.007c1.234-0.018,2.468-0.045,3.701-0.081c-1.635,4.949-3.263,9.852-4.883,14.738
					c-0.002,2.417-0.004,4.835-0.006,7.253c-1.224,0-2.449,0-3.673,0c-0.001-2.417-0.002-4.833-0.003-7.25
					C-152.182,140.265-153.692,135.374-155.21,130.447z"/>
				<path fill="#3B550D" d="M-135.541,152.393c0.035-7.424,0.069-14.846,0.104-22.27c1.232-0.068,2.464-0.145,3.696-0.231
					c-0.036,6.428-0.072,12.854-0.108,19.282c2.021-0.021,4.042-0.047,6.062-0.076c-0.008,1.096-0.015,2.191-0.022,3.287
					C-129.054,152.388-132.297,152.391-135.541,152.393z"/>
				<path fill="#3B550D" d="M-124.481,146.837c0.028-4.009,0.057-8.018,0.085-12.026c0.013-1.848,0.508-3.314,1.482-4.428
					c0.976-1.112,2.366-1.78,4.169-2.004c1.803-0.224,3.179,0.111,4.13,1.046c0.951,0.932,1.419,2.388,1.404,4.345
					c-0.032,4.242-0.065,8.485-0.098,12.729c-0.015,1.958-0.506,3.485-1.473,4.553c-0.967,1.069-2.35,1.592-4.149,1.59
					c-1.799-0.001-3.177-0.516-4.134-1.524C-124.021,150.104-124.494,148.685-124.481,146.837z M-120.807,146.969
					c-0.011,1.55,0.622,2.318,1.902,2.297c1.268-0.02,1.908-0.823,1.92-2.408c0.033-4.313,0.066-8.625,0.1-12.938
					c0.012-1.572-0.616-2.284-1.887-2.148c-1.281,0.137-1.929,0.972-1.94,2.51C-120.743,138.51-120.775,142.739-120.807,146.969z"/>
				<path fill="#3B550D" d="M-111.236,146.421c0.032-4.295,0.064-8.592,0.097-12.887c0.015-1.991,0.492-3.582,1.431-4.811
					c0.938-1.225,2.306-2.001,4.101-2.321c1.795-0.319,3.179-0.023,4.155,0.947c0.977,0.969,1.459,2.541,1.448,4.691
					c-0.005,0.869-0.01,1.738-0.014,2.606c-1.219,0.161-2.438,0.317-3.659,0.466c0.006-0.932,0.012-1.862,0.018-2.794
					c0.011-1.708-0.555-2.468-1.698-2.29c-1.395,0.217-2.1,1.148-2.111,2.808c-0.032,4.562-0.064,9.124-0.097,13.686
					c-0.012,1.649,0.682,2.459,2.081,2.426c1.146-0.027,1.725-0.888,1.736-2.586c0.01-1.597,0.02-3.192,0.03-4.789
					c-0.489,0.038-0.978,0.075-1.466,0.111c0.008-1.227,0.016-2.455,0.024-3.682c1.71-0.171,3.419-0.352,5.127-0.542
					c-0.016,2.824-0.031,5.649-0.046,8.474c-0.012,2.152-0.515,3.823-1.509,4.983c-0.995,1.162-2.394,1.725-4.196,1.723
					c-1.802,0-3.165-0.555-4.088-1.629C-110.797,149.937-111.251,148.413-111.236,146.421z"/>
				<path fill="#3B550D" d="M-98.222,145.842c0.022-4.696,0.045-9.392,0.068-14.088c0.01-2.162,0.498-3.916,1.459-5.307
					c0.961-1.388,2.332-2.3,4.11-2.715c1.777-0.418,3.135-0.127,4.08,0.932c0.945,1.053,1.418,2.783,1.418,5.152
					c0,5.132,0,10.263,0,15.395c0,2.369-0.478,4.222-1.437,5.514c-0.959,1.295-2.339,1.916-4.138,1.916
					c-1.799-0.001-3.179-0.612-4.137-1.794C-97.759,149.662-98.233,148.006-98.222,145.842z M-94.558,145.92
					c-0.007,1.837,0.628,2.735,1.906,2.699c1.266-0.038,1.9-1.007,1.904-2.906c0.009-5.166,0.019-10.332,0.028-15.497
					c0.003-1.885-0.622-2.696-1.876-2.441c-1.266,0.256-1.903,1.289-1.909,3.112C-94.523,135.898-94.541,140.909-94.558,145.92z"/>
			</g>
		</g>
		
			<text transform="matrix(1 0 0 1 -201.5293 165.9648)" display="inline" fill="#FFFFFF" font-family="'BebasNeueBook'" font-size="12.4603">lorem ipsum dolor si amet</text>
	</g>
	<g>
		<path fill="#F06668" d="M81.387,109.602c0,0,3.736,10.196,7.831,12.913c4.096,2.716,10.396,1.383,13.596-0.188
			c3.198-1.569,5.541-18.474,5.541-18.474L81.387,109.602z"/>
		<path fill="#F5A1AC" d="M98.302,113.578c0,0,2.813,8.186,5.884,9.977c3.069,1.791,11.768-1.791,14.325-4.604
			c2.559-2.814,4.604-17.396,2.814-20.977C119.534,94.393,98.302,113.578,98.302,113.578z"/>
		<path fill="#F5A1AC" d="M57.628,116.903c0,0,2.813,10.488,6.65,13.558c3.838,3.07,10.233,2.303,13.559,1.023
			C81.162,130.206,85,113.578,85,113.578L57.628,116.903z"/>
		<path fill="#F06668" d="M33.569,110.172c0,0,1.305,10.78,4.669,14.361c3.365,3.581,9.805,3.725,13.278,2.929
			c3.473-0.797,9.62-16.716,9.62-16.716L33.569,110.172z"/>
		<path fill="#F06668" d="M142.076,60.352c-2.342-0.517-5.374-1.462-7.617-3.072c0.595-0.469,1.145-0.985,1.586-1.605
			c2.541-3.569,2.089-7.857-2.488-9.164c-5.104-1.458-6.138,5.133-4.693,8.467c0.223,0.515,0.502,0.979,0.79,1.436
			c-2.169,0.637-4.599,0.446-6.794,0.56c-0.763,0.039-1.236,1.19-0.423,1.563c2.691,1.237,6.284,1.357,9.285,0.268
			c2.702,2.36,6.449,3.489,10.068,3.668C143.005,62.531,143.265,60.613,142.076,60.352z M131.435,51.054
			c0.272-1.896,3.103-0.478,2.606,1.424c-0.256,0.981-0.985,1.882-1.778,2.55C131.562,53.913,131.212,52.604,131.435,51.054z"/>
		<path fill="#F06668" d="M25.396,31.462c0,0,13.558-0.511,19.697,8.442s-7.163,6.139-7.163,6.139l-8.186-2.302l-2.813-4.349
			L25.396,31.462z"/>
		<path fill="#F38890" d="M37.675,42.462c0,0-10.233-11.256-12.279-11c-2.047,0.256-5.116,17.396-4.604,22
			S37.675,42.462,37.675,42.462z"/>
		<path fill="#85392E" d="M34.604,43.651c0,0-6.215-6.836-7.458-6.681s-3.107,10.565-2.797,13.361
			C24.661,53.129,34.604,43.651,34.604,43.651z"/>
		<path fill="#F5A1AC" d="M13.884,91.578c-9.396-23.557,7.931-56.279,56.278-59.349c48.349-3.069,69.069,27.116,58.837,59.093
			S32.047,137.113,13.884,91.578z"/>
		<path fill="#F06668" d="M18.487,84.344c0,0-0.435-6.408,5.872-10.719c6.308-4.311,20.227-3.33,23.707,2.547
			c3.479,5.879-7.066,16.43-12.877,15.709L18.487,84.344z"/>
		<path fill="#F38890" d="M18.487,84.344c0,9.25,24.117,12.95,24.117,0C42.604,71.395,18.487,70.932,18.487,84.344z"/>
		<ellipse fill="#85392E" cx="25.586" cy="83.427" rx="2.417" ry="2.305"/>
		<ellipse fill="#85392E" cx="35.628" cy="84.159" rx="2.417" ry="2.305"/>
		<path fill="#F38890" d="M63.512,48.346c-0.897-2.354,11.767-10.744,17.395-9.465s6.651,18.674,5.116,21.488
			C84.488,63.183,67.604,59.09,63.512,48.346z"/>
		<path fill="#F06668" d="M86.022,60.369c1.535-2.814,0.512-20.209-5.116-21.488c-0.576-0.131-1.239-0.139-1.941-0.084l0.406,0.596
			c0,0,3.002,13.33,1.931,21.653C83.74,61.428,85.565,61.207,86.022,60.369z"/>
		<path fill="#85392E" d="M76.781,59.848c0.383-1.074,0.65-2.193,0.769-3.313c0.419-3.943-0.534-7.889-1.479-11.74
			c-4.143,1.215-7.892,3.705-10.653,7.021C68.224,55.677,72.701,58.361,76.781,59.848z"/>
		<path fill="#85392E" d="M48.419,65.151c-4.061,0-4.061,6.296,0,6.296C52.479,71.447,52.479,65.151,48.419,65.151z"/>
		<path fill="#85392E" d="M27.953,63.104c-4.06,0-4.06,6.296,0,6.296S32.013,63.104,27.953,63.104z"/>
		<path fill="#85392E" d="M87.825,34.834c-1.944-0.885-4.412-1.213-6.89-1.334c-2.479-0.258-5.183-0.194-6.978-0.192
			c-3.908,0.005-8.327,0.538-11.102,2.766c-1.279,1.027-0.041,2.865,1.891,2.426c5.074-1.156,10.407-1.703,15.711-1.485
			c1.578,0.064,5.435,1.067,6.799,0.555C88.635,37.052,89.596,35.64,87.825,34.834z"/>
		<circle fill="#FCB912" cx="76.046" cy="18.451" r="12.023"/>
		<circle fill="#F68C1E" cx="76.046" cy="18.451" r="10.232"/>
		<circle fill="#FCB912" cx="76.046" cy="18.451" r="7.346"/>
		<path fill="#F68C1E" d="M79.269,18.336c-0.604-0.661-1.591-0.898-2.482-1.055c-0.071-0.728-0.14-1.451-0.201-2.172
			c0.97-0.143,1.647,0.457,2.523,0.719c0.368,0.11,0.788-0.194,0.771-0.587c-0.076-1.734-1.889-2.31-3.426-2.197
			c-0.01-0.258-0.027-0.518-0.031-0.772c-0.01-0.636-0.983-0.637-0.986,0c-0.001,0.313-0.003,0.639-0.005,0.956
			c-1.41,0.453-3.103,1.772-2.944,3.415c0.149,1.548,1.577,2.011,2.974,2.327c0.028,1.022,0.074,2.043,0.155,3.05
			c-0.594-0.038-1.167-0.287-1.649-0.73c-0.521-0.479-1.624-0.2-1.535,0.635c0.202,1.905,1.823,2.603,3.466,2.447
			c0.041,0.293,0.059,0.598,0.107,0.887c0.07,0.418,0.768,0.416,0.84,0c0.063-0.37,0.098-0.747,0.135-1.124
			c0.196-0.064,0.394-0.128,0.578-0.216C79.592,22.95,81.016,20.248,79.269,18.336z M74.524,16.246
			c0.189-0.348,0.521-0.598,0.894-0.781c-0.001,0.529,0.012,1.064,0.016,1.598C74.855,16.944,74.266,16.721,74.524,16.246z
			 M77.076,21.608c-0.014-0.756-0.054-1.517-0.112-2.281c0.068,0.021,0.146,0.036,0.211,0.058
			C78.459,19.807,77.896,21.02,77.076,21.608z"/>
		<g display="none">
			<g display="inline">
				<path fill="#F06668" d="M28.76,157.969c0-8.099,0-16.196,0-24.295c1.5,0.381,3.004,0.743,4.51,1.088
					c1.519,0.348,2.663,1.074,3.439,2.176c0.772,1.104,1.165,2.53,1.174,4.318c0.005,0.961,0.01,1.924,0.014,2.886
					c0.009,1.787-0.372,3.104-1.141,3.979c-0.769,0.873-1.917,1.263-3.443,1.131c-0.489-0.042-0.978-0.085-1.466-0.129
					c0.005,2.951,0.011,5.902,0.017,8.854C30.828,157.975,29.794,157.972,28.76,157.969z M31.84,145.773
					c0.489,0.061,0.979,0.119,1.468,0.178c0.512,0.059,0.891-0.063,1.136-0.363c0.246-0.301,0.368-0.845,0.365-1.632
					c-0.004-1.144-0.008-2.287-0.012-3.431c-0.002-0.788-0.128-1.365-0.375-1.735c-0.247-0.372-0.625-0.608-1.136-0.708
					c-0.487-0.096-0.974-0.192-1.461-0.291C31.83,140.451,31.835,143.113,31.84,145.773z"/>
				<path fill="#F06668" d="M39.548,157.995c-0.039-7.311-0.077-14.622-0.115-21.933c1.028,0.2,2.059,0.391,3.09,0.574
					c0.043,7.121,0.087,14.243,0.13,21.365C41.618,158,40.583,157.998,39.548,157.995z"/>
				<path fill="#F06668" d="M44.62,152.961c-0.024-3.646-0.048-7.292-0.071-10.938c-0.012-1.692,0.372-2.94,1.153-3.727
					c0.779-0.785,1.93-1.05,3.453-0.831s2.707,0.808,3.551,1.768c0.844,0.962,1.271,2.22,1.282,3.806
					c0.004,0.641,0.009,1.282,0.013,1.923c-1.037-0.079-2.073-0.165-3.109-0.257c-0.005-0.719-0.011-1.438-0.016-2.156
					c-0.009-1.317-0.498-2.031-1.468-2.149c-1.184-0.148-1.771,0.449-1.761,1.797c0.025,3.696,0.051,7.392,0.076,11.087
					c0.009,1.339,0.605,2.022,1.789,2.043c0.969,0.017,1.448-0.627,1.439-1.935c-0.009-1.233-0.018-2.466-0.025-3.699
					c-0.414-0.023-0.827-0.047-1.241-0.07c-0.007-0.966-0.014-1.931-0.021-2.896c1.449,0.112,2.899,0.217,4.351,0.312
					c0.014,2.085,0.028,4.169,0.042,6.254c0.011,1.584-0.398,2.796-1.229,3.653c-0.83,0.855-2.005,1.295-3.528,1.295
					c-1.523,0.002-2.681-0.445-3.474-1.358C45.032,155.967,44.631,154.654,44.62,152.961z"/>
				<path fill="#F06668" d="M55.632,153.336c-0.022-3.388-0.045-6.775-0.067-10.163c-0.011-1.573,0.377-2.745,1.161-3.514
					c0.785-0.767,1.943-1.071,3.473-0.942c1.532,0.13,2.721,0.625,3.566,1.493c0.845,0.87,1.268,2.052,1.274,3.56
					c0.003,0.611,0.005,1.221,0.008,1.831c-1.039-0.04-2.078-0.085-3.116-0.137c-0.004-0.679-0.007-1.356-0.011-2.035
					c-0.007-1.244-0.497-1.896-1.473-1.966c-1.187-0.086-1.777,0.495-1.77,1.759c0.021,3.46,0.043,6.918,0.063,10.378
					c0.008,1.254,0.604,1.887,1.786,1.9c0.972,0.011,1.453-0.604,1.446-1.837c-0.006-1.163-0.012-2.327-0.019-3.491
					c-0.415-0.014-0.83-0.026-1.245-0.041c-0.005-0.908-0.01-1.816-0.015-2.724c1.452,0.065,2.906,0.122,4.36,0.169
					c0.009,1.984,0.017,3.969,0.025,5.954c0.007,1.509-0.404,2.665-1.237,3.481c-0.832,0.814-2.01,1.227-3.533,1.229
					c-1.521,0.002-2.68-0.416-3.473-1.266C56.045,156.126,55.642,154.906,55.632,153.336z"/>
				<path fill="#F06668" d="M65.84,139.314c1.042,0.056,2.084,0.104,3.127,0.142c0.81,2.854,1.617,5.689,2.421,8.513
					c0.794-2.802,1.59-5.598,2.39-8.395c1.043,0.012,2.086,0.017,3.13,0.012c-1.374,4.119-2.74,8.219-4.1,12.329
					c0.003,2.039,0.006,4.079,0.009,6.118c-1.035,0-2.071,0-3.106,0c-0.005-2.049-0.011-4.097-0.016-6.145
					C68.415,147.738,67.13,143.555,65.84,139.314z"/>
				<path fill="#F06668" d="M78.129,158.034c0.006-6.152,0.011-12.305,0.016-18.457c1.576-0.017,3.151-0.053,4.726-0.108
					c1.604-0.056,2.776,0.23,3.519,0.901c0.743,0.665,1.11,1.733,1.104,3.202c-0.001,0.222-0.002,0.444-0.003,0.667
					c-0.009,1.922-0.689,3.21-2.038,3.845c1.549,0.52,2.316,1.839,2.307,3.955c-0.003,0.512-0.005,1.022-0.007,1.534
					c-0.007,1.451-0.411,2.562-1.215,3.321c-0.805,0.76-1.978,1.139-3.524,1.139C81.385,158.033,79.757,158.033,78.129,158.034z
					 M81.256,147.059c0.409-0.007,0.818-0.014,1.227-0.021c0.62-0.012,1.089-0.174,1.406-0.48c0.317-0.305,0.478-0.814,0.479-1.524
					c0.001-0.347,0.003-0.692,0.004-1.039c0.002-0.667-0.122-1.147-0.372-1.447c-0.251-0.296-0.655-0.438-1.212-0.421
					c-0.507,0.015-1.014,0.029-1.521,0.04C81.264,143.796,81.26,145.428,81.256,147.059z M81.238,155.387
					c0.594-0.002,1.188-0.005,1.781-0.009c0.544-0.002,0.949-0.145,1.218-0.423c0.269-0.279,0.403-0.753,0.406-1.421
					c0.002-0.541,0.003-1.083,0.005-1.624c0.004-0.846-0.149-1.437-0.458-1.758c-0.309-0.322-0.821-0.479-1.54-0.467
					c-0.467,0.008-0.934,0.014-1.399,0.02C81.246,151.6,81.242,153.493,81.238,155.387z"/>
				<path fill="#F06668" d="M88.78,158.029c1.08-6.289,2.167-12.648,3.259-19.104c1.607-0.134,3.213-0.287,4.817-0.461
					c1.01,6.404,2.015,12.913,3.019,19.553c-1.035,0.001-2.069,0.003-3.104,0.004c-0.173-1.183-0.346-2.361-0.519-3.537
					c-1.27,0.025-2.539,0.05-3.81,0.07c-0.186,1.16-0.372,2.317-0.558,3.473C90.851,158.027,89.815,158.029,88.78,158.029z
					 M92.863,151.941c1.001-0.029,2.001-0.061,3.001-0.094c-0.48-3.248-0.961-6.472-1.443-9.673
					C93.901,145.455,93.382,148.709,92.863,151.941z"/>
				<path fill="#F06668" d="M101.063,158.016c0.047-6.69,0.094-13.382,0.141-20.072c1.398-0.185,2.796-0.384,4.191-0.6
					c1.034,3.963,2.067,8.014,3.103,12.168c0.026-4.229,0.054-8.457,0.08-12.686c0.922-0.158,1.843-0.322,2.763-0.494
					c-0.041,7.222-0.082,14.444-0.124,21.666c-1.066,0.002-2.133,0.004-3.198,0.006c-1.251-5.09-2.5-10.025-3.749-14.834
					c-0.034,4.947-0.068,9.895-0.103,14.842C103.131,158.014,102.097,158.014,101.063,158.016z"/>
				<path fill="#F06668" d="M113.149,157.994c0.037-7.344,0.075-14.688,0.112-22.03c1.027-0.202,2.054-0.413,3.079-0.633
					c-0.013,3.291-0.025,6.583-0.038,9.874c1.362-3.455,2.718-7.042,4.063-10.781c1.022-0.241,2.043-0.492,3.062-0.75
					c-1.417,3.969-2.848,7.762-4.287,11.402c1.42,4.119,2.848,8.406,4.287,12.893c-1.063,0.003-2.125,0.006-3.188,0.009
					c-1-3.121-1.996-6.149-2.989-9.096c-0.323,0.725-0.647,1.442-0.971,2.153c-0.009,2.317-0.019,4.635-0.027,6.952
					C115.219,157.99,114.184,157.992,113.149,157.994z"/>
			</g>
		</g>
		
			<text transform="matrix(1 0 0 1 24.3027 172.4805)" display="none" fill="#F06668" font-family="'BebasNeueBook'" font-size="12.3896">lorem ipsum dolor si amet</text>
		<path display="none" fill="#F5A1AC" d="M125.79,133.984v23.984c0,0,12.045,0,12.562,0s-6.014-10.95-6.014-10.95l6.048-13.034
			H125.79z"/>
		<path display="none" fill="#F5A1AC" d="M25.732,157.969v-23.984c0,0-12.045,0-12.562,0s6.014,10.951,6.014,10.951l-6.048,13.033
			H25.732z"/>
		<rect x="26.587" y="159.959" display="none" fill="#85392E" width="97.052" height="1.17"/>
	</g>
	<g display="none">
		<path display="inline" fill="#9ECC5F" d="M50.617,276.947c0,0-21.771,13.284-27.306,33.947
			c-5.534,20.663-0.737,27.305-0.737,30.257c0,2.951-3.321,6.272-0.738,7.748s12.545-4.428,15.128-1.845s10.332,8.486,41.695,8.486
			c31.364,0,40.589-8.486,44.278-6.642s7.748,2.952,9.963,1.476c2.214-1.476-3.321-8.855-3.321-12.176s2.214-24.354-8.117-40.957
			c-10.332-16.604-22.14-21.032-23.615-24.723c-1.477-3.689,15.497-33.208,14.391-36.529c-1.107-3.32-8.856-0.369-10.701-2.582
			c-1.845-2.215-2.952-5.166-5.534-5.904c-2.583-0.738-17.712-0.369-20.663,0.738c-2.952,1.106-4.428,5.903-7.749,5.903
			s-9.225-5.903-11.808-6.272s-9.594-0.369-12.914,0.369c-3.321,0.738-8.855,2.582-12.546,4.428
			c-3.689,1.845,6.273,21.4,12.914,26.566C49.879,264.402,51.724,274.365,50.617,276.947z"/>
		<g display="inline">
			<path fill="#86B548" d="M63.104,279.039c-0.469-0.237-0.951-0.436-1.462-0.553C62.123,278.688,62.61,278.871,63.104,279.039z"/>
			<path fill="#86B548" d="M132.9,350.375c2.214-1.476-3.321-8.855-3.321-12.176s2.214-24.354-8.117-40.957
				c-10.332-16.604-22.14-21.032-23.615-24.723c-1.477-3.689,15.497-33.208,14.391-36.529c-1.107-3.32-8.856-0.369-10.701-2.582
				c-1.845-2.215-2.952-5.166-5.534-5.904c-1.312-0.374-5.852-0.463-10.394-0.315c2.452,1.479,4.319,4.128,5.159,6.932
				c1.253,4.188,0.748,8.671,0.364,13.026c-0.126,1.433-0.071,3.197,1.193,3.884c0.724,0.394,1.651,0.285,2.352,0.721
				c0.882,0.548,1.083,1.729,1.133,2.765c0.396,8.278-3.7,16.635-10.484,21.394c-6.356,4.46-14.88,5.624-22.222,3.13
				c4.084,2.066,6.751,8.074,11.171,6.93c1.266-0.328,2.385-1.264,3.691-1.236c1.123,0.023,2.085,0.75,3.074,1.281
				c2.68,1.438,5.889,1.518,8.692,2.694c5.251,2.204,8.267,8.008,8.783,13.679s-1.016,11.307-2.535,16.795
				c2.555-1.301,5.831,0.782,6.676,3.521c0.844,2.739-0.104,5.712-1.42,8.259c-3.985,7.714-11.558,13.479-20.054,15.268
				c-8.497,1.789-17.75-0.434-24.508-5.886c-0.43,2.907-3.906,4.505-6.809,4.044s-5.343-2.342-7.735-4.048
				c-2.392-1.706-5.081-3.357-8.018-3.244c-1.869,0.071-3.662,0.862-5.532,0.871c-2.738,0.013-5.09-1.594-7.418-3.25
				c0.571,3.294,1.411,5.198,1.411,6.436c0,2.951-3.321,6.272-0.738,7.748s12.545-4.428,15.128-1.845s10.332,8.486,41.695,8.486
				c31.364,0,40.589-8.486,44.278-6.642S130.686,351.852,132.9,350.375z"/>
		</g>
		<g display="inline">
			<path fill="#86B548" d="M79.539,227.549c-1.914,0.18-3.451,0.412-4.2,0.693c-1.828,0.686-3.09,2.783-4.574,4.283
				c0.037,0.281,0.074,0.563,0.11,0.844c1.067,8.269,2.135,16.537,3.202,24.806c0.416,3.222,0.848,6.499,2.194,9.455
				C80.912,254.942,80.428,241.082,79.539,227.549z"/>
			<path fill="#86B548" d="M47.98,227.693c4.082,9.771,8.163,19.542,12.245,29.313c1.42,3.401,2.872,6.855,5.21,9.705
				c1.536-11.489-1.422-23.019-2.553-34.578c-2.709-1.748-5.523-4.035-7.101-4.26C54.211,227.648,51.002,227.563,47.98,227.693z"/>
		</g>
		<path display="inline" fill="#A76830" d="M116.462,257.942c-4.09-0.434-8.146,0.296-11.676,2.455
			c-2.462,1.507-3.889,4.044-5.024,6.707c-1.243-2.808-3.871-5.31-6.015-6.942c-4.295-3.273-9.81-5.879-14.68-2.24
			c-5.194,3.88-2.158,10.51,2.187,13.461c1.353,0.919,3.147,1.707,5.123,2.291c-0.072,0.022-0.142,0.049-0.214,0.07
			c-6.118,0.007-12.12-0.283-18.284-1.067c-7.012-0.892-13.499-4.64-20.583-4.625c-0.742,0.001-1.105,1.096-0.393,1.45
			c4.964,2.474,10.488,5.045,16.229,6.959c-5.081-0.277-9.997-1.117-13.561-2.727c-1.566-0.708-3.283,1.145-1.922,2.489
			c6.536,6.456,19.941,5.636,28.372,5.503c5.626-0.089,16.656-1.936,22.496-6.383c-0.565,1.724-1.417,3.344-2.377,4.998
			c-1.268,2.184-2.956,4.295-2.746,6.938c0.108,1.364,1.523,1.904,2.56,1.061c2.351-1.917,3.408-5.446,4.553-8.18
			c0.443-1.057,0.726-2.139,0.935-3.229c2.775,4.144,5.992,8.929,10.378,10.955c1.615,0.746,3.063-1.066,1.887-2.445
			c-1.81-2.12-4.088-3.797-6.073-5.75c-1.155-1.138-2.25-2.335-3.324-3.552c2.695,0.202,5.479,0.008,7.787-0.119
			c4.529-0.248,11.483-0.93,13.622-5.722C128.411,264.264,121.987,258.526,116.462,257.942z M97.974,269.426
			c-3.191-0.083-6.369,0.594-9.614,0.111c-2.176-0.322-4.366-1.035-6.118-2.395c-2.962-2.3-2.486-5.948,1.027-7.279
			c2.769-1.049,6.756,1.545,8.921,2.965c2.302,1.509,4.847,3.834,5.803,6.59C97.985,269.42,97.979,269.423,97.974,269.426z
			 M118.857,269.263c-5.483,2.252-11.152,0.915-16.76,0.587c3.422-4.262,6.818-6.855,13.251-6.476
			C118.19,263.541,123.2,267.479,118.857,269.263z"/>
		<path display="inline" fill="#FFFFFF" d="M89.823,321.526c-0.912-3.991-4.089-5.729-7.756-6.827
			c0.151-4.439,0.265-8.883,0.287-13.339c0.616,0.493,1.211,1.022,1.756,1.629c0.716,0.796,2.191-0.034,1.825-1.063
			c-0.748-2.108-2.014-3.692-3.589-4.847c-0.019-1.646-0.044-3.291-0.101-4.942c-0.042-1.211-1.845-1.213-1.88,0
			c-0.036,1.247-0.071,2.493-0.106,3.739c-2.754-1.224-6.059-1.487-9.239-1.016c-0.028-1.348-0.056-2.691-0.078-4.024
			c-0.022-1.34-1.89-1.272-2.032,0c-0.17,1.521-0.331,3.051-0.493,4.579c-7.127,2-12.515,7.593-7.458,13.762
			c1.735,2.117,3.671,3.64,5.748,4.803c-0.45,5.813-0.817,11.635-1.076,17.432c-1.915-0.871-3.733-2.154-5.537-3.756
			c-1.228-1.09-3.434-0.064-2.888,1.681c1.227,3.92,4.472,6.063,8.225,7.044c-0.076,2.274-0.138,4.543-0.178,6.803
			c-0.029,1.603,2.409,1.943,2.794,0.378c0.53-2.157,0.975-4.347,1.351-6.557c2.272,0.145,4.545-0.03,6.525-0.421
			c0.479-0.095,0.982-0.231,1.495-0.388c0.111,1.185,0.289,2.368,0.572,3.552c0.466,1.946,3.446,1.494,3.443-0.466
			c-0.003-1.612,0.018-3.22,0.04-4.826C86.431,331.73,91.052,326.904,89.823,321.526z M67.091,309.228
			c-3.371-2.485-5.594-5.859-0.714-8.847c0.529-0.324,1.07-0.596,1.616-0.844C67.671,302.756,67.367,305.987,67.091,309.228z
			 M80.136,299.895c-0.149,4.707-0.36,9.409-0.741,14.105c-2.732-0.635-5.502-1.137-7.651-2.099
			c-0.164-0.073-0.332-0.151-0.502-0.231c0.02-4.406-0.055-8.803-0.145-13.144C74.208,297.914,77.369,298.425,80.136,299.895z
			 M70.04,332.612c0.703-5.481,1.028-11.067,1.146-16.669c2.501,0.863,5.132,1.481,7.813,2.166
			c-0.562,4.45-1.463,8.908-1.672,13.362c-0.445,0.201-0.865,0.366-1.242,0.479C73.905,332.607,71.911,332.798,70.04,332.612z
			 M81.594,328.819c0.092-3.312,0.207-6.618,0.326-9.924c0.078,0.022,0.155,0.041,0.233,0.063
			C88.771,320.878,85.697,325.582,81.594,328.819z"/>
		<path display="inline" fill="#BCD873" d="M50.617,285.572c-3.683-0.07-8.078,4.02-10.673,6.346
			c-3.856,3.456-6.122,7.574-5.327,12.816c0.349,2.306,3.901,3.162,5.348,1.412c2.37-2.869,4.283-6.063,6.636-8.931
			c2.102-2.561,6.072-6.065,6.092-9.567C52.698,286.5,51.743,285.595,50.617,285.572z"/>
		<path display="inline" fill="#BCD873" d="M34.249,311.98c-0.706-0.568-1.482-0.73-2.314-0.299
			c-0.573,0.298-1.129,0.898-1.48,1.432c-0.047,0.071-0.075,0.117-0.094,0.149c-0.008,0.009-0.01,0.011-0.019,0.021
			c-0.428,0.486-0.645,0.968-0.761,1.59c-0.166,0.885-0.028,1.735,0.633,2.396c0.586,0.585,1.586,0.922,2.396,0.633
			c0.559-0.2,1.092-0.401,1.521-0.83c0.484-0.484,0.719-1.147,0.938-1.78C35.428,314.259,35.131,312.689,34.249,311.98z"/>
		<path display="inline" fill="#BCD873" d="M42.231,243.693c-1.26-1.999-2.315-4.018-3.105-6.24c-0.588-1.651-3.165-1.928-3.625,0
			c-0.569,2.39,0.217,4.901,0.974,7.16c0.861,2.573,1.673,5.184,4.137,6.627c1.164,0.683,3.108,0.117,3.346-1.361
			C44.349,247.439,43.508,245.721,42.231,243.693z"/>
		<path display="inline" fill="#BCD873" d="M48.188,255.389c-0.492-0.293-0.995-0.778-1.35-1.23c-0.484-0.619-1.533-0.505-2.038,0
			c-0.605,0.605-0.484,1.421,0,2.039c0.816,1.043,1.867,1.357,3.14,1.088C48.846,257.094,48.924,255.826,48.188,255.389z"/>
		<g display="inline">
			<g>
				<path fill="#A76830" d="M29.15,380.914c0-8.464,0-16.929,0-25.393c1.478,0.375,2.959,0.733,4.442,1.073
					c0.806,5.958,1.618,11.782,2.437,17.486c0.72-5.606,1.435-11.101,2.146-16.494c1.546,0.315,3.095,0.613,4.646,0.89
					c0.044,7.49,0.088,14.98,0.131,22.471c-1.08-0.002-2.161-0.005-3.241-0.008c-0.027-5.512-0.055-11.024-0.082-16.536
					c-0.717,5.407-1.437,10.914-2.16,16.532c-1.025-0.003-2.051-0.005-3.076-0.008c-0.822-5.685-1.64-11.494-2.448-17.44
					c0.01,5.812,0.02,11.623,0.029,17.435C31.033,380.919,30.092,380.917,29.15,380.914z"/>
				<path fill="#A76830" d="M44.822,375.638c-0.023-3.84-0.048-7.679-0.071-11.519c-0.012-1.771,0.404-3.082,1.248-3.908
					c0.845-0.83,2.058-1.106,3.646-0.874c1.589,0.229,2.811,0.849,3.666,1.862c0.854,1.012,1.287,2.334,1.298,3.994
					c0.024,3.598,0.048,7.196,0.072,10.795c0.011,1.659-0.405,2.93-1.244,3.839c-0.842,0.904-2.056,1.37-3.644,1.37
					c-1.588,0.001-2.81-0.469-3.667-1.438C45.268,378.793,44.834,377.41,44.822,375.638z M48.064,375.979
					c0.01,1.429,0.579,2.154,1.708,2.176c1.119,0.021,1.675-0.668,1.665-2.061c-0.025-3.807-0.051-7.611-0.077-11.418
					c-0.01-1.385-0.575-2.143-1.694-2.283c-1.129-0.143-1.688,0.49-1.679,1.911C48.013,368.195,48.039,372.087,48.064,375.979z"/>
				<path fill="#A76830" d="M56.789,380.969c-0.043-6.841-0.087-13.681-0.131-20.521c1.465,0.156,2.93,0.295,4.396,0.418
					c1.139,4.107,2.274,8.151,3.407,12.146c-0.019-3.965-0.037-7.931-0.056-11.896c0.971,0.063,1.943,0.121,2.915,0.171
					c0.024,6.563,0.05,13.128,0.074,19.691c-1.114-0.001-2.228-0.001-3.342-0.002c-1.364-4.801-2.733-9.667-4.107-14.63
					c0.028,4.875,0.058,9.751,0.086,14.626C58.951,380.971,57.87,380.97,56.789,380.969z"/>
				<path fill="#A76830" d="M69.413,380.979c-0.02-6.533-0.04-13.066-0.06-19.6c2.971,0.121,5.944,0.176,8.918,0.161
					c-0.001,0.926-0.001,1.853-0.002,2.778c-1.881,0.008-3.764-0.008-5.645-0.047c0.003,1.813,0.007,3.626,0.01,5.438
					c1.491,0.021,2.982,0.032,4.474,0.033c0,0.921,0,1.843,0,2.765c-1.489-0.001-2.979-0.01-4.469-0.025
					c0.004,1.903,0.008,3.807,0.011,5.71c1.872,0.007,3.743,0.009,5.614,0.009c0,0.926-0.001,1.854-0.001,2.779
					C75.313,380.98,72.363,380.98,69.413,380.979z"/>
				<path fill="#A76830" d="M79.214,361.533c1.089-0.011,2.179-0.03,3.268-0.059c0.832,2.943,1.66,5.891,2.486,8.85
					c0.843-2.995,1.688-6.008,2.536-9.046c1.089-0.058,2.178-0.123,3.266-0.197c-1.452,4.533-2.899,8.985-4.34,13.388
					c-0.008,2.17-0.016,4.34-0.022,6.51c-1.082,0-2.163,0.001-3.245,0.001c0.006-2.156,0.011-4.313,0.016-6.469
					C81.863,370.173,80.542,365.855,79.214,361.533z"/>
				<path fill="#A76830" d="M91.954,380.975c0.034-6.662,0.069-13.324,0.104-19.986c1.644-0.124,3.285-0.269,4.925-0.434
					c1.668-0.17,2.886,0.074,3.656,0.771c0.77,0.696,1.149,1.864,1.138,3.505c-0.002,0.248-0.003,0.496-0.005,0.744
					c-0.015,2.146-0.726,3.611-2.135,4.36c1.614,0.521,2.41,1.971,2.395,4.336c-0.004,0.571-0.008,1.143-0.012,1.714
					c-0.011,1.621-0.438,2.866-1.279,3.716c-0.842,0.851-2.068,1.267-3.685,1.269C95.355,380.972,93.655,380.973,91.954,380.975z
					 M95.268,368.963c0.427-0.023,0.854-0.047,1.279-0.072c0.647-0.039,1.137-0.235,1.467-0.583c0.332-0.352,0.5-0.921,0.505-1.706
					c0.002-0.383,0.005-0.765,0.007-1.147c0.005-0.735-0.121-1.263-0.381-1.579c-0.258-0.315-0.679-0.447-1.261-0.396
					c-0.528,0.045-1.056,0.09-1.584,0.131C95.289,365.395,95.278,367.179,95.268,368.963z M95.214,378.075
					c0.62-0.009,1.24-0.019,1.86-0.028c0.568-0.008,0.992-0.167,1.273-0.479c0.279-0.311,0.424-0.837,0.429-1.575
					c0.004-0.599,0.008-1.197,0.012-1.796c0.006-0.94-0.152-1.584-0.473-1.932c-0.318-0.349-0.855-0.504-1.604-0.47
					c-0.487,0.022-0.974,0.044-1.46,0.063C95.238,373.932,95.227,376.003,95.214,378.075z"/>
				<path fill="#A76830" d="M103.08,380.961c1.144-7.047,2.289-14.24,3.433-21.604c1.669-0.252,3.335-0.525,4.999-0.819
					c1.048,7.275,2.099,14.734,3.155,22.403c-1.08,0.003-2.161,0.005-3.242,0.007c-0.18-1.354-0.359-2.703-0.539-4.046
					c-1.325,0.044-2.65,0.085-3.976,0.124c-0.195,1.316-0.391,2.625-0.586,3.932C105.242,380.959,104.161,380.96,103.08,380.961z
					 M107.352,374.057c1.043-0.053,2.085-0.107,3.127-0.166c-0.499-3.705-0.998-7.365-1.496-10.984
					C108.439,366.666,107.896,370.382,107.352,374.057z"/>
				<path fill="#A76830" d="M115.688,375.371c0.02-4.023,0.038-8.047,0.058-12.07c0.009-1.866,0.426-3.369,1.246-4.551
					c0.82-1.177,2.019-1.952,3.59-2.313c1.572-0.362,2.786-0.127,3.646,0.76c0.86,0.891,1.29,2.371,1.29,4.416
					c0,0.826,0,1.652,0,2.479c-1.069,0.18-2.14,0.354-3.212,0.521c0.002-0.881,0.004-1.762,0.005-2.644
					c0.003-1.618-0.495-2.321-1.499-2.119c-1.222,0.247-1.839,1.138-1.845,2.704c-0.015,4.294-0.029,8.589-0.045,12.883
					c-0.006,1.55,0.61,2.309,1.843,2.271c1.013-0.029,1.519-0.847,1.521-2.452c0.003-1.511,0.006-3.022,0.009-4.533
					c-0.43,0.043-0.86,0.085-1.29,0.126c0.003-1.159,0.006-2.318,0.009-3.477c1.503-0.192,3.004-0.395,4.504-0.607
					c0,2.686,0,5.371,0,8.057c0,2.047-0.434,3.638-1.308,4.739c-0.873,1.104-2.106,1.638-3.696,1.636
					c-1.59,0-2.795-0.523-3.612-1.529C116.084,378.658,115.679,377.238,115.688,375.371z"/>
			</g>
		</g>
		
			<text transform="matrix(1 0 0 1 27.6875 395.1543)" display="inline" fill="#A76830" font-family="'BebasNeueBook'" font-size="11.8602">lorem ipsum dolor si amet</text>
		<path display="inline" fill="#A5CD41" d="M134.033,383.166H20.242c-0.239,0-0.433,0.193-0.433,0.433v0.254
			c0,0.239,0.193,0.433,0.433,0.433h113.791c0.238,0,0.433-0.193,0.433-0.433v-0.254
			C134.466,383.359,134.271,383.166,134.033,383.166z"/>
	</g>
	<g display="none">
		<circle display="inline" fill="#FCB912" cx="-154.716" cy="291.066" r="37.841"/>
		<g display="inline">
			<g>
				<path fill="#F5951F" d="M-205.804,373.816c0-8.815,0-17.63,0-26.445c1.496,0.38,2.994,0.744,4.496,1.094
					c0.815,6.207,1.638,12.28,2.467,18.227c0.728-5.846,1.45-11.577,2.169-17.201c1.564,0.33,3.13,0.642,4.699,0.938
					c0.048,7.808,0.096,15.614,0.144,23.421c-1.094-0.002-2.188-0.004-3.282-0.007c-0.029-5.747-0.058-11.495-0.087-17.243
					c-0.723,5.638-1.45,11.381-2.181,17.238c-1.038-0.003-2.076-0.005-3.114-0.008c-0.833-5.926-1.661-11.98-2.479-18.175
					c0.01,6.057,0.02,12.112,0.029,18.169C-203.898,373.821-204.851,373.819-205.804,373.816z"/>
				<path fill="#F5951F" d="M-189.941,368.319c-0.027-4.001-0.053-8.002-0.08-12.003c-0.012-1.844,0.408-3.207,1.26-4.063
					c0.852-0.858,2.079-1.137,3.684-0.88c1.605,0.254,2.841,0.916,3.706,1.979c0.865,1.063,1.304,2.439,1.318,4.158
					c0.029,3.732,0.058,7.466,0.087,11.198c0.013,1.723-0.405,3.04-1.255,3.98c-0.849,0.94-2.078,1.422-3.685,1.423
					s-2.846-0.491-3.714-1.498C-189.489,371.606-189.93,370.166-189.941,368.319z M-186.661,368.679
					c0.011,1.49,0.587,2.242,1.73,2.269c1.133,0.021,1.694-0.69,1.683-2.141c-0.03-3.955-0.061-7.911-0.091-11.866
					c-0.011-1.438-0.583-2.23-1.715-2.388c-1.142-0.159-1.706,0.498-1.695,1.975C-186.719,360.578-186.69,364.628-186.661,368.679z"
					/>
				<path fill="#F5951F" d="M-177.826,373.874c-0.055-7.084-0.109-14.17-0.164-21.254c1.479,0.185,2.961,0.354,4.443,0.511
					c1.159,4.262,2.316,8.445,3.471,12.564c-0.028-4.078-0.055-8.155-0.083-12.233c0.982,0.089,1.964,0.171,2.947,0.246
					c0.041,6.727,0.082,13.452,0.123,20.179c-1.127-0.002-2.255-0.003-3.383-0.004c-1.391-4.938-2.787-9.967-4.185-15.112
					c0.038,5.036,0.075,10.072,0.113,15.108C-175.638,373.877-176.732,373.875-177.826,373.874z"/>
				<path fill="#F5951F" d="M-165.046,373.888c-0.037-6.677-0.074-13.354-0.111-20.03c3.004,0.204,6.011,0.348,9.02,0.434
					c0.002,0.934,0.005,1.868,0.007,2.803c-1.904-0.047-3.807-0.113-5.71-0.2c0.008,1.845,0.017,3.688,0.025,5.532
					c1.508,0.047,3.017,0.085,4.526,0.114c0.003,0.932,0.005,1.862,0.008,2.794c-1.507-0.022-3.015-0.051-4.522-0.087
					c0.009,1.936,0.018,3.872,0.026,5.808c1.894,0.016,3.787,0.027,5.681,0.035c0.002,0.934,0.005,1.869,0.007,2.803
					C-159.074,373.893-162.06,373.891-165.046,373.888z"/>
				<path fill="#F5951F" d="M-155.182,354.315c1.103,0.026,2.205,0.045,3.308,0.056c0.851,2.976,1.698,5.943,2.542,8.909
					c0.845-2.968,1.693-5.937,2.545-8.917c1.103-0.015,2.205-0.036,3.308-0.066c-1.461,4.408-2.915,8.775-4.362,13.131
					c-0.001,2.155-0.003,4.311-0.005,6.466c-1.094,0.001-2.188,0.001-3.282,0c-0.001-2.155-0.002-4.31-0.004-6.465
					C-152.475,363.075-153.825,358.713-155.182,354.315z"/>
				<path fill="#F5951F" d="M-137.604,373.891c0.03-6.611,0.06-13.223,0.09-19.835c1.743-0.093,3.485-0.206,5.226-0.34
					c1.633-0.126,2.859,0.194,3.679,0.988c0.819,0.794,1.222,2.021,1.21,3.68c-0.024,3.472-0.049,6.942-0.074,10.413
					c-0.011,1.656-0.432,2.927-1.26,3.793c-0.829,0.869-2.054,1.295-3.678,1.297C-134.141,373.888-135.872,373.89-137.604,373.891z
					 M-134.305,371.023c0.618-0.007,1.236-0.014,1.854-0.021c0.546-0.006,0.962-0.164,1.252-0.475
					c0.289-0.31,0.436-0.813,0.44-1.513c0.023-3.521,0.045-7.04,0.068-10.561c0.004-0.697-0.137-1.192-0.422-1.477
					c-0.287-0.289-0.703-0.41-1.25-0.375c-0.621,0.041-1.241,0.079-1.862,0.116C-134.252,361.487-134.279,366.256-134.305,371.023z"
					/>
				<path fill="#F5951F" d="M-125.422,373.879c0.052-6.937,0.103-13.873,0.154-20.81c2.996-0.322,5.987-0.705,8.972-1.147
					c-0.008,1.046-0.016,2.092-0.024,3.138c-1.891,0.241-3.784,0.461-5.679,0.66c-0.015,1.97-0.03,3.939-0.045,5.909
					c1.504-0.107,3.008-0.224,4.511-0.349c-0.008,1.032-0.016,2.065-0.024,3.098c-1.502,0.095-3.006,0.183-4.51,0.265
					c-0.016,2.067-0.032,4.136-0.048,6.203c1.893-0.035,3.784-0.074,5.676-0.117c-0.008,1.047-0.016,2.092-0.024,3.139
					C-119.45,373.871-122.436,373.876-125.422,373.879z"/>
				<path fill="#F5951F" d="M-115.297,373.865c1.166-7.375,2.33-14.918,3.49-22.653c1.686-0.284,3.369-0.587,5.049-0.909
					c1.057,7.637,2.119,15.476,3.189,23.539c-1.094,0.002-2.188,0.005-3.282,0.007c-0.182-1.423-0.364-2.84-0.546-4.25
					c-1.34,0.048-2.68,0.094-4.021,0.137c-0.199,1.381-0.398,2.755-0.598,4.124C-113.109,373.861-114.204,373.863-115.297,373.865z
					 M-110.969,366.621c1.055-0.06,2.109-0.121,3.163-0.185c-0.504-3.89-1.007-7.73-1.509-11.524
					C-109.865,358.862-110.417,362.764-110.969,366.621z"/>
				<path fill="#F5951F" d="M-102.285,373.839c0.035-8.155,0.07-16.309,0.105-24.464c1.084-0.23,2.167-0.47,3.249-0.717
					c-0.021,7.191-0.042,14.383-0.062,21.573c1.801-0.063,3.601-0.128,5.401-0.196c0,1.261,0,2.521,0,3.781
					C-96.49,373.824-99.388,373.832-102.285,373.839z"/>
			</g>
		</g>
		
			<text transform="matrix(1 0 0 1 -201.1025 389.0117)" display="inline" fill="#86B548" font-family="'BebasNeueBook'" font-size="12.2525">lorem ipsum dolor si amet</text>
		<path display="inline" fill="#FCB912" d="M-91.226,376.627h-117.583c-0.239,0-0.433,0.194-0.433,0.434v0.291
			c0,0.238,0.194,0.433,0.433,0.433h117.583c0.239,0,0.433-0.194,0.433-0.433v-0.291C-90.792,376.821-90.986,376.627-91.226,376.627
			z"/>
		<path display="inline" fill="#9ECC5F" d="M-157.38,241.083c-13.338-1.685-25.577,6.991-34.464,16.044
			c-9.218,9.39-14.292,21.035-15.096,33.865c-1.373-1.26-2.554-2.729-3.84-4.074c-0.745-0.779-2.375,0.022-1.917,1.115
			c0.843,2.011,1.857,3.859,3.16,5.613c1.289,1.732,3.028,3.872,5.442,3.313c0.458-0.106,0.789-0.378,0.999-0.727
			c0.563-0.292,1.11-0.654,1.664-1.021c1.591-1.049,2.893-2.3,4.1-3.766c0.691-0.838-0.178-2.185-1.212-1.57
			c-1.332,0.793-2.702,1.55-4.079,2.26c-0.199,0.104-0.407,0.193-0.619,0.278c1.237-4.543,1.392-9.28,3.31-13.761
			c2.536-5.922,5.92-11.439,10.103-16.333c8.336-9.753,19.641-16.758,32.448-18.297
			C-155.484,243.797-155.495,241.321-157.38,241.083z"/>
		<path display="inline" fill="#9ECC5F" d="M-150.77,340.684c13.338,1.685,25.577-6.991,34.463-16.044
			c9.218-9.39,14.292-21.036,15.096-33.865c1.373,1.259,2.554,2.729,3.84,4.074c0.745,0.779,2.376-0.022,1.917-1.116
			c-0.843-2.01-1.857-3.859-3.161-5.612c-1.289-1.733-3.028-3.872-5.442-3.313c-0.458,0.105-0.79,0.379-0.999,0.727
			c-0.564,0.292-1.11,0.654-1.664,1.02c-1.591,1.05-2.893,2.301-4.1,3.766c-0.691,0.839,0.178,2.186,1.211,1.571
			c1.332-0.792,2.702-1.55,4.079-2.261c0.199-0.102,0.408-0.192,0.62-0.277c-1.237,4.543-1.392,9.279-3.31,13.76
			c-2.535,5.923-5.919,11.44-10.103,16.334c-8.336,9.753-19.641,16.758-32.448,18.297
			C-152.667,337.971-152.656,340.445-150.77,340.684z"/>
		<polygon display="inline" fill="#F68C1E" points="-138.333,233.192 -135.8,238.324 -130.137,239.147 -134.235,243.142 
			-133.268,248.782 -138.333,246.119 -143.398,248.782 -142.431,243.142 -146.529,239.147 -140.866,238.324 		"/>
		<polygon display="inline" fill="#FCB912" points="-112.6,243.872 -112.205,249.581 -107.277,252.492 -112.585,254.632 
			-113.831,260.217 -117.506,255.831 -123.203,256.372 -120.167,251.521 -122.442,246.271 -116.891,247.658 		"/>
		<polygon display="inline" fill="#F68C1E" points="-94.473,270.934 -98.827,274.648 -98.235,280.34 -103.113,277.347 
			-108.344,279.668 -107.004,274.104 -110.828,269.847 -105.123,269.401 -102.255,264.449 -100.068,269.737 		"/>
		<polygon display="inline" fill="#F68C1E" points="-165.243,351.531 -167.776,346.399 -173.439,345.576 -169.341,341.582 
			-170.309,335.941 -165.243,338.605 -160.178,335.941 -161.146,341.582 -157.047,345.576 -162.71,346.399 		"/>
		<polygon display="inline" fill="#FCB912" points="-190.977,340.852 -191.372,335.143 -196.299,332.231 -190.992,330.092 
			-189.746,324.506 -186.07,328.893 -180.373,328.352 -183.409,333.203 -181.134,338.453 -186.686,337.065 		"/>
		<polygon display="inline" fill="#F68C1E" points="-209.104,313.79 -204.75,310.076 -205.341,304.384 -200.463,307.377 
			-195.232,305.057 -196.572,310.62 -192.749,314.877 -198.454,315.322 -201.321,320.275 -203.508,314.986 		"/>
		<path display="inline" fill="#F5951F" d="M-152.158,308.256c-12.409-13.521-20.416-30.969-22.801-49.154
			c-10.574,6.711-17.598,18.514-17.598,31.965c0,20.898,16.942,37.84,37.841,37.84c7.449,0,14.389-2.16,20.244-5.877
			C-140.968,318.885-146.946,313.935-152.158,308.256z"/>
		<path display="inline" fill="#FFFFFF" d="M-141.396,288.494c-2.659-2.911-6.999-3.952-10.921-4.64
			c-0.311-3.2-0.611-6.384-0.883-9.553c4.267-0.63,7.247,2.011,11.1,3.162c1.621,0.485,3.467-0.857,3.391-2.583
			c-0.336-7.628-8.307-10.159-15.069-9.665c-0.046-1.132-0.123-2.277-0.139-3.399c-0.042-2.795-4.325-2.798-4.338,0
			c-0.006,1.374-0.014,2.813-0.023,4.207c-6.2,1.991-13.644,7.798-12.948,15.024c0.656,6.807,6.936,8.841,13.077,10.233
			c0.127,4.498,0.33,8.987,0.684,13.416c-2.613-0.169-5.131-1.267-7.255-3.217c-2.293-2.106-7.142-0.879-6.751,2.796
			c0.89,8.379,8.02,11.446,15.246,10.762c0.181,1.288,0.259,2.632,0.473,3.9c0.309,1.839,3.375,1.831,3.691,0
			c0.28-1.626,0.432-3.285,0.596-4.942c0.862-0.281,1.728-0.563,2.54-0.948C-139.977,308.789-133.712,296.906-141.396,288.494z
			 M-162.266,279.302c0.834-1.531,2.297-2.632,3.932-3.438c-0.005,2.328,0.049,4.684,0.067,7.029
			C-160.808,282.371-163.403,281.387-162.266,279.302z M-151.04,302.889c-0.059-3.325-0.235-6.673-0.494-10.035
			c0.301,0.087,0.641,0.16,0.925,0.253C-144.957,294.963-147.438,300.299-151.04,302.889z"/>
	</g>
</g>
<g id="DESIGNED_BY_FREEPIK" display="none">
	<g display="inline">
		<g>
			<path fill="#5A4A42" d="M-112.985,438.551v-0.168c-0.229,0.26-0.453,0.474-0.675,0.636c-0.221,0.165-0.461,0.289-0.72,0.374
				s-0.541,0.128-0.848,0.128c-0.406,0-0.783-0.087-1.128-0.259c-0.346-0.171-0.645-0.418-0.897-0.736
				c-0.253-0.32-0.445-0.693-0.575-1.124c-0.131-0.431-0.196-0.897-0.196-1.397c0-1.062,0.259-1.889,0.777-2.48
				c0.518-0.593,1.199-0.888,2.044-0.888c0.488,0,0.901,0.084,1.235,0.25c0.336,0.169,0.663,0.426,0.983,0.774v-2.506
				c0-0.346,0.068-0.609,0.208-0.788c0.138-0.178,0.336-0.267,0.592-0.267c0.257,0,0.455,0.082,0.594,0.246
				c0.138,0.163,0.208,0.402,0.208,0.723v7.482c0,0.322-0.074,0.565-0.223,0.727s-0.342,0.243-0.579,0.243
				c-0.231,0-0.422-0.085-0.575-0.253C-112.91,439.1-112.985,438.859-112.985,438.551z M-116.323,436.059
				c0,0.46,0.072,0.851,0.214,1.174c0.143,0.324,0.338,0.568,0.587,0.729c0.249,0.166,0.52,0.247,0.814,0.247
				c0.298,0,0.57-0.077,0.816-0.233c0.247-0.154,0.443-0.393,0.59-0.714c0.147-0.321,0.222-0.723,0.222-1.202
				c0-0.452-0.075-0.84-0.222-1.166c-0.146-0.324-0.344-0.572-0.596-0.746c-0.251-0.172-0.525-0.258-0.823-0.258
				c-0.311,0-0.588,0.09-0.833,0.266c-0.245,0.174-0.434,0.427-0.568,0.757C-116.256,435.242-116.323,435.624-116.323,436.059z"/>
			<path fill="#5A4A42" d="M-105.505,436.488h-3.318c0.003,0.385,0.081,0.724,0.233,1.018c0.15,0.296,0.352,0.517,0.602,0.666
				c0.251,0.149,0.527,0.222,0.83,0.222c0.203,0,0.388-0.022,0.557-0.069c0.167-0.049,0.33-0.122,0.488-0.224
				c0.156-0.102,0.301-0.211,0.433-0.327c0.133-0.117,0.305-0.273,0.517-0.474c0.086-0.074,0.211-0.111,0.374-0.111
				c0.173,0,0.313,0.049,0.421,0.144c0.108,0.096,0.163,0.23,0.163,0.403c0,0.154-0.06,0.332-0.18,0.538
				c-0.122,0.204-0.303,0.402-0.544,0.592c-0.243,0.187-0.547,0.343-0.914,0.469c-0.366,0.123-0.788,0.187-1.264,0.187
				c-1.09,0-1.937-0.313-2.542-0.935c-0.605-0.619-0.907-1.463-0.907-2.527c0-0.502,0.073-0.967,0.223-1.396
				c0.15-0.429,0.368-0.796,0.652-1.104c0.286-0.306,0.639-0.541,1.057-0.704c0.417-0.164,0.883-0.244,1.392-0.244
				c0.663,0,1.232,0.138,1.706,0.418c0.475,0.279,0.83,0.641,1.065,1.083c0.236,0.444,0.354,0.896,0.354,1.355
				c0,0.427-0.122,0.703-0.365,0.831C-104.716,436.425-105.062,436.488-105.505,436.488z M-108.823,435.525h3.076
				c-0.042-0.582-0.199-1.016-0.47-1.303c-0.271-0.288-0.627-0.433-1.072-0.433c-0.422,0-0.77,0.146-1.041,0.438
				C-108.601,434.52-108.764,434.952-108.823,435.525z"/>
			<path fill="#5A4A42" d="M-97.775,437.3c0,0.47-0.114,0.87-0.342,1.204c-0.227,0.333-0.564,0.587-1.01,0.758
				c-0.445,0.172-0.987,0.259-1.625,0.259c-0.609,0-1.132-0.095-1.566-0.281c-0.436-0.187-0.755-0.42-0.963-0.698
				c-0.207-0.28-0.31-0.56-0.31-0.842c0-0.188,0.064-0.347,0.199-0.479c0.132-0.132,0.3-0.199,0.503-0.199
				c0.178,0,0.314,0.044,0.41,0.131c0.095,0.088,0.186,0.21,0.273,0.366c0.173,0.303,0.382,0.528,0.624,0.677
				c0.243,0.149,0.572,0.224,0.992,0.224c0.339,0,0.618-0.075,0.835-0.226c0.217-0.152,0.326-0.324,0.326-0.52
				c0-0.299-0.112-0.516-0.338-0.652c-0.226-0.137-0.598-0.268-1.116-0.392c-0.583-0.146-1.06-0.297-1.426-0.457
				c-0.367-0.158-0.66-0.37-0.879-0.63c-0.22-0.262-0.331-0.583-0.331-0.963c0-0.341,0.101-0.662,0.305-0.965
				c0.203-0.301,0.503-0.543,0.898-0.723c0.396-0.182,0.873-0.271,1.432-0.271c0.439,0,0.834,0.046,1.183,0.138
				c0.35,0.091,0.643,0.214,0.876,0.367c0.234,0.153,0.413,0.322,0.535,0.509c0.122,0.186,0.183,0.369,0.183,0.547
				c0,0.194-0.066,0.354-0.195,0.479c-0.131,0.124-0.315,0.186-0.557,0.186c-0.173,0-0.322-0.049-0.443-0.148
				c-0.122-0.099-0.262-0.248-0.421-0.447c-0.127-0.166-0.278-0.299-0.453-0.397c-0.173-0.101-0.41-0.149-0.708-0.149
				c-0.306,0-0.56,0.065-0.764,0.197c-0.203,0.128-0.305,0.291-0.305,0.486c0,0.179,0.076,0.325,0.224,0.438
				c0.15,0.114,0.35,0.209,0.604,0.282c0.251,0.074,0.6,0.165,1.044,0.273c0.526,0.129,0.955,0.282,1.289,0.46
				c0.333,0.177,0.586,0.389,0.758,0.632C-97.861,436.714-97.775,436.99-97.775,437.3z"/>
			<path fill="#5A4A42" d="M-96.042,431.834c-0.236,0-0.438-0.074-0.605-0.218c-0.168-0.146-0.253-0.351-0.253-0.616
				c0-0.24,0.087-0.438,0.258-0.594c0.173-0.156,0.372-0.232,0.601-0.232c0.22,0,0.414,0.07,0.583,0.211
				c0.169,0.142,0.255,0.347,0.255,0.615c0,0.262-0.083,0.466-0.249,0.612C-95.617,431.759-95.814,431.834-96.042,431.834z
				 M-95.204,433.585v4.902c0,0.34-0.081,0.599-0.242,0.771c-0.162,0.174-0.366,0.262-0.615,0.262c-0.25,0-0.452-0.089-0.606-0.268
				c-0.155-0.18-0.233-0.434-0.233-0.766v-4.853c0-0.335,0.078-0.588,0.233-0.759c0.155-0.169,0.356-0.255,0.606-0.255
				c0.249,0,0.453,0.086,0.615,0.255C-95.284,433.047-95.204,433.282-95.204,433.585z"/>
			<path fill="#5A4A42" d="M-87.772,433.865v4.928c0,0.563-0.061,1.047-0.182,1.453c-0.119,0.407-0.312,0.741-0.578,1.008
				c-0.264,0.265-0.611,0.461-1.04,0.59c-0.428,0.128-0.962,0.192-1.6,0.192c-0.583,0-1.106-0.082-1.566-0.245
				c-0.459-0.164-0.813-0.376-1.062-0.635s-0.374-0.525-0.374-0.799c0-0.206,0.071-0.376,0.211-0.505
				c0.14-0.131,0.311-0.195,0.51-0.195c0.248,0,0.466,0.109,0.653,0.328c0.09,0.112,0.185,0.226,0.282,0.339
				c0.098,0.114,0.205,0.212,0.323,0.292c0.117,0.079,0.26,0.141,0.425,0.181c0.166,0.038,0.358,0.058,0.573,0.058
				c0.439,0,0.78-0.06,1.021-0.182c0.243-0.124,0.413-0.294,0.51-0.515c0.097-0.217,0.154-0.453,0.171-0.704s0.028-0.654,0.037-1.21
				c-0.261,0.367-0.562,0.644-0.904,0.834c-0.341,0.19-0.749,0.286-1.22,0.286c-0.569,0-1.064-0.145-1.489-0.435
				c-0.425-0.291-0.752-0.697-0.979-1.219c-0.227-0.522-0.34-1.124-0.34-1.808c0-0.511,0.068-0.971,0.208-1.38
				c0.139-0.411,0.337-0.756,0.593-1.037c0.256-0.283,0.553-0.494,0.889-0.639c0.335-0.142,0.703-0.212,1.106-0.212
				c0.481,0,0.897,0.091,1.249,0.274c0.353,0.186,0.68,0.475,0.982,0.868v-0.231c0-0.293,0.071-0.521,0.217-0.684
				c0.145-0.16,0.331-0.242,0.559-0.242c0.327,0,0.544,0.108,0.652,0.32C-87.827,433.155-87.772,433.463-87.772,433.865z
				 M-92.688,436.016c0,0.686,0.15,1.207,0.45,1.559c0.3,0.354,0.69,0.529,1.166,0.529c0.281,0,0.547-0.076,0.797-0.228
				c0.251-0.151,0.456-0.38,0.613-0.684c0.158-0.304,0.237-0.674,0.237-1.108c0-0.692-0.152-1.23-0.457-1.615
				c-0.305-0.387-0.706-0.58-1.204-0.58c-0.484,0-0.873,0.186-1.165,0.555C-92.542,434.811-92.688,435.336-92.688,436.016z"/>
			<path fill="#5A4A42" d="M-85.075,433.56v0.206c0.298-0.393,0.624-0.682,0.978-0.866c0.355-0.186,0.762-0.278,1.221-0.278
				c0.448,0,0.847,0.099,1.2,0.294c0.352,0.194,0.615,0.47,0.789,0.825c0.112,0.206,0.184,0.432,0.217,0.67
				c0.033,0.242,0.051,0.549,0.051,0.921v3.156c0,0.34-0.078,0.599-0.234,0.771c-0.155,0.174-0.356,0.262-0.605,0.262
				c-0.253,0-0.458-0.089-0.615-0.268c-0.158-0.18-0.236-0.434-0.236-0.766v-2.827c0-0.559-0.078-0.987-0.234-1.283
				c-0.155-0.296-0.464-0.443-0.928-0.443c-0.303,0-0.579,0.089-0.826,0.27c-0.249,0.182-0.432,0.428-0.547,0.743
				c-0.083,0.253-0.125,0.726-0.125,1.416v2.125c0,0.345-0.081,0.604-0.239,0.774c-0.16,0.172-0.366,0.259-0.618,0.259
				c-0.246,0-0.446-0.089-0.603-0.268c-0.158-0.18-0.237-0.434-0.237-0.766v-4.902c0-0.323,0.071-0.563,0.211-0.724
				c0.141-0.16,0.333-0.24,0.578-0.24c0.15,0,0.284,0.036,0.405,0.107c0.12,0.07,0.216,0.176,0.289,0.316
				C-85.112,433.186-85.075,433.357-85.075,433.56z"/>
			<path fill="#5A4A42" d="M-74.755,436.488h-3.318c0.003,0.385,0.082,0.724,0.233,1.018c0.151,0.296,0.352,0.517,0.603,0.666
				c0.249,0.149,0.526,0.222,0.829,0.222c0.203,0,0.388-0.022,0.557-0.069c0.167-0.049,0.33-0.122,0.487-0.224
				c0.158-0.102,0.302-0.211,0.436-0.327c0.132-0.117,0.304-0.273,0.515-0.474c0.086-0.074,0.211-0.111,0.374-0.111
				c0.173,0,0.313,0.049,0.422,0.144c0.107,0.096,0.161,0.23,0.161,0.403c0,0.154-0.06,0.332-0.179,0.538
				c-0.121,0.204-0.303,0.402-0.545,0.592c-0.243,0.187-0.547,0.343-0.913,0.469c-0.367,0.123-0.789,0.187-1.265,0.187
				c-1.09,0-1.937-0.313-2.542-0.935c-0.603-0.619-0.906-1.463-0.906-2.527c0-0.502,0.073-0.967,0.223-1.396
				c0.149-0.429,0.366-0.796,0.653-1.104c0.284-0.306,0.637-0.541,1.055-0.704c0.418-0.164,0.884-0.244,1.393-0.244
				c0.663,0,1.23,0.138,1.706,0.418c0.475,0.279,0.83,0.641,1.065,1.083c0.236,0.444,0.355,0.896,0.355,1.355
				c0,0.427-0.124,0.703-0.368,0.831C-73.967,436.425-74.313,436.488-74.755,436.488z M-78.073,435.525h3.076
				c-0.042-0.582-0.198-1.016-0.469-1.303c-0.272-0.288-0.629-0.433-1.073-0.433c-0.422,0-0.77,0.146-1.041,0.438
				C-77.851,434.52-78.016,434.952-78.073,435.525z"/>
			<path fill="#5A4A42" d="M-67.84,438.551v-0.168c-0.227,0.26-0.453,0.474-0.675,0.636c-0.221,0.165-0.461,0.289-0.72,0.374
				s-0.541,0.128-0.847,0.128c-0.407,0-0.783-0.087-1.129-0.259c-0.345-0.171-0.645-0.418-0.897-0.736
				c-0.253-0.32-0.444-0.693-0.575-1.124c-0.13-0.431-0.195-0.897-0.195-1.397c0-1.062,0.259-1.889,0.776-2.48
				c0.518-0.593,1.2-0.888,2.045-0.888c0.489,0,0.901,0.084,1.236,0.25c0.336,0.169,0.663,0.426,0.981,0.774v-2.506
				c0-0.346,0.07-0.609,0.208-0.788c0.139-0.178,0.338-0.267,0.595-0.267s0.454,0.082,0.593,0.246
				c0.138,0.163,0.208,0.402,0.208,0.723v7.482c0,0.322-0.074,0.565-0.225,0.727c-0.149,0.161-0.34,0.243-0.577,0.243
				c-0.232,0-0.424-0.085-0.575-0.253S-67.84,438.859-67.84,438.551z M-71.176,436.059c0,0.46,0.071,0.851,0.213,1.174
				c0.143,0.324,0.338,0.568,0.587,0.729c0.249,0.166,0.52,0.247,0.814,0.247c0.299,0,0.571-0.077,0.817-0.233
				c0.247-0.154,0.444-0.393,0.591-0.714c0.147-0.321,0.22-0.723,0.22-1.202c0-0.452-0.072-0.84-0.22-1.166
				c-0.146-0.324-0.346-0.572-0.596-0.746c-0.253-0.172-0.526-0.258-0.825-0.258c-0.31,0-0.587,0.09-0.832,0.266
				c-0.244,0.174-0.435,0.427-0.569,0.757C-71.11,435.242-71.176,435.624-71.176,436.059z"/>
			<path fill="#5A4A42" d="M-60.907,431.068v2.592c0.319-0.331,0.644-0.586,0.976-0.761c0.332-0.177,0.742-0.264,1.23-0.264
				c0.564,0,1.057,0.132,1.483,0.399c0.424,0.268,0.752,0.655,0.988,1.162c0.234,0.508,0.352,1.109,0.352,1.807
				c0,0.514-0.066,0.983-0.197,1.412c-0.13,0.428-0.32,0.801-0.569,1.115c-0.248,0.315-0.549,0.56-0.903,0.73
				c-0.355,0.172-0.746,0.259-1.172,0.259c-0.261,0-0.506-0.032-0.736-0.095c-0.231-0.062-0.426-0.143-0.588-0.245
				c-0.161-0.101-0.299-0.205-0.413-0.313c-0.114-0.107-0.265-0.27-0.451-0.484v0.168c0,0.318-0.077,0.561-0.23,0.723
				c-0.151,0.165-0.348,0.247-0.583,0.247c-0.241,0-0.432-0.082-0.575-0.247c-0.143-0.162-0.213-0.404-0.213-0.723v-7.408
				c0-0.343,0.069-0.604,0.207-0.779c0.14-0.177,0.334-0.264,0.582-0.264c0.261,0,0.462,0.084,0.603,0.251
				C-60.978,430.519-60.907,430.757-60.907,431.068z M-60.826,436.108c0,0.675,0.154,1.194,0.464,1.557
				c0.308,0.362,0.713,0.543,1.215,0.543c0.426,0,0.793-0.185,1.102-0.556c0.309-0.372,0.463-0.902,0.463-1.594
				c0-0.448-0.063-0.834-0.193-1.156c-0.128-0.322-0.31-0.574-0.546-0.748c-0.237-0.176-0.513-0.266-0.826-0.266
				c-0.324,0-0.612,0.09-0.864,0.266c-0.253,0.174-0.452,0.43-0.597,0.764C-60.754,435.25-60.826,435.648-60.826,436.108z"/>
			<path fill="#5A4A42" d="M-53.68,439.731l0.155-0.381l-2.087-5.257c-0.128-0.301-0.194-0.521-0.194-0.657
				c0-0.146,0.039-0.28,0.114-0.404c0.074-0.124,0.176-0.224,0.306-0.298c0.132-0.076,0.268-0.113,0.408-0.113
				c0.244,0,0.429,0.079,0.553,0.234c0.125,0.154,0.234,0.377,0.33,0.668l1.436,4.176l1.36-3.885
				c0.107-0.313,0.205-0.561,0.293-0.738c0.086-0.18,0.179-0.301,0.276-0.361c0.098-0.061,0.235-0.094,0.414-0.094
				c0.129,0,0.251,0.034,0.37,0.104c0.117,0.068,0.208,0.161,0.273,0.277c0.063,0.115,0.096,0.238,0.096,0.365
				c-0.017,0.079-0.044,0.189-0.082,0.336c-0.037,0.145-0.082,0.292-0.137,0.441l-2.212,5.792c-0.19,0.509-0.376,0.908-0.559,1.198
				s-0.422,0.515-0.724,0.668c-0.301,0.156-0.706,0.233-1.214,0.233c-0.497,0-0.871-0.054-1.118-0.161
				c-0.249-0.108-0.374-0.305-0.374-0.591c0-0.194,0.06-0.346,0.178-0.45c0.117-0.105,0.293-0.16,0.523-0.16
				c0.092,0,0.181,0.014,0.268,0.039c0.108,0.024,0.201,0.038,0.279,0.038c0.194,0,0.348-0.029,0.46-0.089
				c0.112-0.058,0.212-0.156,0.301-0.302C-53.898,440.219-53.796,440.008-53.68,439.731z"/>
		</g>
		<g>
			<path fill="#5A4A42" d="M-29.105,432.769h0.404v-0.509c0-0.532,0.064-0.953,0.2-1.269c0.134-0.313,0.363-0.54,0.685-0.683
				c0.322-0.143,0.762-0.215,1.319-0.215c0.995,0,1.487,0.242,1.487,0.73c0,0.156-0.052,0.29-0.156,0.402
				c-0.101,0.11-0.225,0.168-0.365,0.168c-0.064,0-0.183-0.014-0.346-0.041c-0.156-0.021-0.296-0.035-0.407-0.035
				c-0.306,0-0.502,0.093-0.591,0.272c-0.086,0.179-0.129,0.437-0.129,0.774v0.403h0.414c0.648,0,0.969,0.194,0.969,0.586
				c0,0.274-0.083,0.452-0.257,0.526c-0.171,0.075-0.409,0.112-0.712,0.112h-0.414v4.494c0,0.335-0.079,0.59-0.242,0.766
				c-0.158,0.179-0.361,0.267-0.616,0.267c-0.239,0-0.439-0.088-0.602-0.267c-0.158-0.176-0.237-0.431-0.237-0.766v-4.494h-0.468
				c-0.254,0-0.446-0.055-0.585-0.171c-0.137-0.112-0.205-0.263-0.205-0.443C-29.959,432.97-29.674,432.769-29.105,432.769"/>
			<path fill="#5A4A42" d="M-23.553,437.07v1.417c0,0.343-0.086,0.603-0.244,0.772c-0.161,0.174-0.365,0.26-0.612,0.26
				c-0.25,0-0.451-0.087-0.606-0.263c-0.155-0.174-0.236-0.43-0.236-0.77v-4.724c0-0.764,0.275-1.146,0.824-1.146
				c0.284,0,0.487,0.089,0.611,0.268c0.125,0.179,0.193,0.44,0.208,0.791c0.2-0.351,0.407-0.612,0.62-0.791
				c0.219-0.179,0.499-0.268,0.856-0.268c0.359,0,0.702,0.089,1.038,0.268c0.337,0.179,0.504,0.416,0.504,0.71
				c0,0.205-0.072,0.379-0.212,0.511c-0.145,0.137-0.298,0.204-0.463,0.204c-0.064,0-0.216-0.042-0.454-0.119
				c-0.238-0.072-0.449-0.111-0.63-0.111c-0.248,0-0.452,0.066-0.609,0.193c-0.159,0.135-0.28,0.326-0.368,0.581
				c-0.086,0.259-0.145,0.566-0.179,0.918C-23.537,436.128-23.553,436.562-23.553,437.07"/>
			<path fill="#5A4A42" d="M-15.752,436.485h-3.32c0.006,0.386,0.08,0.727,0.233,1.021c0.152,0.291,0.353,0.514,0.604,0.664
				c0.252,0.15,0.525,0.223,0.829,0.223c0.205,0,0.389-0.021,0.557-0.072c0.166-0.045,0.331-0.121,0.487-0.223
				c0.158-0.101,0.302-0.208,0.436-0.326c0.132-0.116,0.306-0.273,0.517-0.472c0.087-0.074,0.212-0.113,0.371-0.113
				c0.176,0,0.316,0.049,0.425,0.144c0.109,0.097,0.158,0.23,0.158,0.404c0,0.155-0.058,0.332-0.175,0.537
				c-0.123,0.206-0.302,0.402-0.545,0.594c-0.246,0.186-0.55,0.344-0.916,0.466c-0.364,0.124-0.787,0.188-1.263,0.188
				c-1.093,0-1.94-0.311-2.543-0.932c-0.604-0.623-0.909-1.467-0.909-2.531c0-0.501,0.074-0.968,0.226-1.396
				c0.146-0.431,0.364-0.795,0.654-1.104c0.284-0.309,0.635-0.543,1.054-0.706c0.418-0.162,0.882-0.244,1.394-0.244
				c0.66,0,1.229,0.139,1.704,0.422c0.474,0.277,0.834,0.639,1.065,1.082c0.238,0.446,0.355,0.896,0.355,1.357
				c0,0.425-0.124,0.7-0.368,0.829C-14.966,436.422-15.309,436.485-15.752,436.485 M-19.072,435.521h3.076
				c-0.042-0.579-0.195-1.015-0.468-1.299c-0.273-0.291-0.628-0.433-1.073-0.433c-0.422,0-0.77,0.144-1.041,0.438
				C-18.851,434.52-19.017,434.95-19.072,435.521"/>
			<path fill="#5A4A42" d="M-8.695,436.485h-3.318c0.003,0.386,0.082,0.727,0.231,1.021c0.151,0.291,0.353,0.514,0.603,0.664
				c0.252,0.15,0.526,0.223,0.832,0.223c0.201,0,0.388-0.021,0.553-0.072c0.169-0.045,0.331-0.121,0.49-0.223
				c0.159-0.101,0.301-0.208,0.435-0.326c0.13-0.116,0.303-0.273,0.516-0.472c0.089-0.074,0.212-0.113,0.372-0.113
				c0.176,0,0.316,0.049,0.426,0.144c0.107,0.097,0.155,0.23,0.155,0.404c0,0.155-0.056,0.332-0.177,0.537
				c-0.116,0.206-0.299,0.402-0.545,0.594c-0.241,0.186-0.549,0.344-0.911,0.466c-0.364,0.124-0.79,0.188-1.267,0.188
				c-1.09,0-1.936-0.311-2.544-0.932c-0.603-0.623-0.908-1.467-0.908-2.531c0-0.501,0.077-0.968,0.229-1.396
				c0.147-0.431,0.366-0.795,0.652-1.104c0.284-0.309,0.636-0.543,1.056-0.706c0.416-0.162,0.883-0.244,1.393-0.244
				c0.659,0,1.229,0.139,1.71,0.422c0.471,0.277,0.828,0.639,1.06,1.082c0.236,0.446,0.356,0.896,0.356,1.357
				c0,0.425-0.124,0.7-0.367,0.829C-7.91,436.422-8.254,436.485-8.695,436.485 M-12.014,435.521h3.074
				c-0.04-0.579-0.197-1.015-0.468-1.299c-0.274-0.291-0.628-0.433-1.074-0.433c-0.422,0-0.77,0.144-1.041,0.438
				C-11.792,434.52-11.958,434.95-12.014,435.521"/>
			<path fill="#5A4A42" d="M-4.979,433.573v0.202c0.318-0.392,0.65-0.681,0.997-0.866c0.34-0.185,0.731-0.278,1.166-0.278
				c0.52,0,1.005,0.135,1.444,0.404c0.44,0.271,0.783,0.665,1.038,1.182c0.257,0.52,0.385,1.131,0.385,1.84
				c0,0.521-0.073,1.003-0.221,1.439c-0.146,0.438-0.351,0.804-0.606,1.1c-0.257,0.296-0.56,0.525-0.908,0.686
				c-0.355,0.157-0.729,0.238-1.132,0.238c-0.482,0-0.891-0.098-1.22-0.293c-0.328-0.192-0.644-0.481-0.943-0.855v2.547
				c0,0.743-0.272,1.119-0.813,1.119c-0.321,0-0.53-0.096-0.637-0.288c-0.099-0.194-0.153-0.474-0.153-0.845v-7.322
				c0-0.325,0.069-0.563,0.21-0.725c0.141-0.157,0.335-0.239,0.58-0.239c0.24,0,0.435,0.082,0.586,0.245
				C-5.053,433.029-4.979,433.262-4.979,433.573 M-1.653,436.037c0-0.446-0.069-0.832-0.205-1.152
				c-0.137-0.321-0.327-0.568-0.567-0.738c-0.24-0.172-0.512-0.26-0.807-0.26c-0.467,0-0.862,0.187-1.183,0.553
				c-0.322,0.371-0.483,0.913-0.483,1.631c0,0.672,0.159,1.199,0.48,1.575c0.318,0.374,0.711,0.56,1.186,0.56
				c0.28,0,0.544-0.081,0.785-0.241c0.242-0.167,0.434-0.411,0.577-0.738S-1.653,436.502-1.653,436.037"/>
			<path fill="#5A4A42" d="M1.759,431.828c-0.236,0-0.437-0.074-0.603-0.218c-0.17-0.146-0.253-0.349-0.253-0.614
				c0-0.239,0.084-0.438,0.258-0.595c0.172-0.153,0.371-0.233,0.598-0.233c0.223,0,0.416,0.071,0.585,0.211
				c0.171,0.143,0.256,0.349,0.256,0.617c0,0.263-0.083,0.467-0.246,0.613C2.187,431.754,1.989,431.828,1.759,431.828 M2.6,433.582
				v4.908c0,0.337-0.08,0.593-0.241,0.767c-0.164,0.176-0.369,0.263-0.616,0.263c-0.251,0-0.448-0.088-0.608-0.267
				c-0.152-0.182-0.23-0.436-0.23-0.763v-4.859c0-0.334,0.078-0.585,0.23-0.756c0.16-0.174,0.357-0.257,0.608-0.257
				c0.247,0,0.452,0.083,0.616,0.257C2.52,433.046,2.6,433.281,2.6,433.582"/>
			<path fill="#5A4A42" d="M8.068,438.744l-1.494-2.465l-0.921,0.87v1.351c0,0.327-0.087,0.577-0.261,0.753
				c-0.167,0.179-0.368,0.267-0.593,0.267c-0.26,0-0.468-0.087-0.614-0.263c-0.149-0.174-0.225-0.43-0.225-0.77v-7.237
				c0-0.375,0.073-0.66,0.215-0.859c0.147-0.199,0.356-0.297,0.624-0.297c0.263,0,0.466,0.091,0.622,0.27
				c0.153,0.178,0.231,0.441,0.231,0.787v4.117l1.906-2.005c0.238-0.244,0.414-0.417,0.542-0.508
				c0.125-0.09,0.274-0.137,0.452-0.137c0.213,0,0.388,0.067,0.532,0.203c0.139,0.134,0.21,0.304,0.21,0.505
				c0,0.248-0.231,0.582-0.691,0.995l-0.899,0.826l1.74,2.737c0.126,0.205,0.221,0.356,0.276,0.461
				c0.055,0.104,0.086,0.209,0.086,0.303c0,0.27-0.075,0.48-0.224,0.639c-0.146,0.155-0.342,0.232-0.58,0.232
				c-0.206,0-0.367-0.056-0.479-0.169C8.413,439.237,8.258,439.034,8.068,438.744"/>
			<path fill="#5A4A42" d="M11.755,439.52c-0.255,0-0.475-0.084-0.664-0.251c-0.184-0.163-0.279-0.396-0.279-0.696
				c0-0.252,0.091-0.469,0.269-0.651c0.18-0.183,0.398-0.273,0.659-0.273c0.26,0,0.481,0.091,0.669,0.271
				c0.182,0.18,0.275,0.4,0.275,0.654c0,0.296-0.094,0.529-0.275,0.693C12.221,439.436,12.003,439.52,11.755,439.52"/>
			<path fill="#5A4A42" d="M20.194,437.418c0,0.209-0.063,0.438-0.19,0.677c-0.126,0.241-0.32,0.47-0.579,0.687
				s-0.584,0.395-0.978,0.526c-0.395,0.132-0.839,0.2-1.33,0.2c-1.051,0-1.869-0.308-2.458-0.916
				c-0.585-0.613-0.88-1.434-0.88-2.461c0-0.697,0.134-1.313,0.405-1.848c0.266-0.533,0.656-0.947,1.165-1.237
				c0.51-0.294,1.124-0.439,1.828-0.439c0.44,0,0.842,0.064,1.212,0.192c0.366,0.129,0.675,0.296,0.933,0.497
				c0.253,0.206,0.448,0.421,0.581,0.648c0.136,0.23,0.201,0.446,0.201,0.646s-0.074,0.374-0.225,0.516
				c-0.153,0.14-0.337,0.211-0.548,0.211c-0.144,0-0.26-0.036-0.354-0.107c-0.095-0.074-0.199-0.19-0.314-0.355
				c-0.207-0.313-0.422-0.55-0.65-0.705c-0.225-0.16-0.512-0.238-0.859-0.238c-0.499,0-0.907,0.195-1.213,0.589
				c-0.307,0.389-0.461,0.929-0.461,1.604c0,0.321,0.042,0.615,0.121,0.883c0.076,0.268,0.19,0.494,0.34,0.684
				c0.15,0.188,0.329,0.329,0.54,0.428c0.213,0.1,0.444,0.146,0.696,0.146c0.341,0,0.631-0.078,0.875-0.235
				c0.244-0.158,0.459-0.396,0.645-0.722c0.104-0.189,0.214-0.339,0.332-0.447c0.121-0.105,0.269-0.162,0.443-0.162
				c0.206,0,0.378,0.081,0.514,0.237C20.124,437.071,20.194,437.241,20.194,437.418"/>
			<path fill="#5A4A42" d="M27.516,436.07c0,0.502-0.08,0.971-0.233,1.398c-0.162,0.428-0.387,0.793-0.687,1.1
				c-0.298,0.307-0.656,0.542-1.067,0.705c-0.417,0.162-0.883,0.247-1.398,0.247c-0.515,0-0.979-0.085-1.389-0.252
				c-0.407-0.163-0.765-0.401-1.064-0.708c-0.3-0.311-0.528-0.676-0.687-1.098c-0.149-0.42-0.229-0.885-0.229-1.393
				c0-0.515,0.081-0.986,0.233-1.412c0.159-0.429,0.385-0.793,0.681-1.095c0.295-0.303,0.649-0.535,1.066-0.7
				c0.421-0.163,0.884-0.245,1.389-0.245c0.514,0,0.979,0.082,1.398,0.251c0.419,0.163,0.775,0.401,1.075,0.705
				c0.301,0.311,0.525,0.674,0.682,1.094C27.437,435.094,27.516,435.559,27.516,436.07 M25.813,436.07
				c0-0.693-0.153-1.231-0.456-1.616c-0.304-0.39-0.713-0.579-1.227-0.579c-0.332,0-0.625,0.085-0.88,0.257
				c-0.254,0.17-0.443,0.425-0.582,0.761c-0.137,0.337-0.206,0.729-0.206,1.178c0,0.444,0.068,0.829,0.203,1.16
				c0.135,0.334,0.329,0.587,0.579,0.763c0.253,0.175,0.547,0.264,0.886,0.264c0.514,0,0.923-0.192,1.227-0.582
				C25.659,437.287,25.813,436.752,25.813,436.07"/>
			<path fill="#5A4A42" d="M33.988,436.195v2.254c0,0.357-0.08,0.622-0.243,0.804c-0.164,0.179-0.374,0.268-0.639,0.268
				c-0.258,0-0.469-0.089-0.622-0.268c-0.163-0.182-0.244-0.446-0.244-0.804v-2.703c0-0.426-0.014-0.76-0.041-0.996
				c-0.03-0.232-0.111-0.43-0.236-0.578c-0.13-0.154-0.333-0.23-0.61-0.23c-0.557,0-0.92,0.19-1.098,0.576
				c-0.173,0.377-0.265,0.926-0.265,1.64v2.292c0,0.352-0.079,0.619-0.235,0.801c-0.164,0.179-0.373,0.271-0.633,0.271
				c-0.259,0-0.469-0.092-0.632-0.271c-0.164-0.182-0.246-0.449-0.246-0.801v-4.854c0-0.32,0.072-0.563,0.22-0.727
				c0.149-0.169,0.343-0.251,0.581-0.251c0.233,0,0.426,0.081,0.584,0.232c0.153,0.157,0.231,0.371,0.231,0.645v0.161
				c0.297-0.351,0.61-0.609,0.944-0.773c0.339-0.17,0.708-0.252,1.121-0.252c0.427,0,0.793,0.085,1.098,0.255
				c0.308,0.171,0.558,0.429,0.76,0.771c0.286-0.347,0.594-0.604,0.921-0.773c0.329-0.168,0.691-0.252,1.088-0.252
				c0.463,0,0.865,0.094,1.2,0.274c0.334,0.182,0.585,0.444,0.75,0.781c0.145,0.309,0.217,0.792,0.217,1.451v3.312
				c0,0.357-0.079,0.622-0.24,0.804c-0.162,0.179-0.377,0.268-0.641,0.268c-0.259,0-0.467-0.092-0.632-0.271
				c-0.163-0.182-0.245-0.449-0.245-0.801v-2.854c0-0.366-0.015-0.655-0.047-0.875c-0.03-0.221-0.114-0.405-0.249-0.553
				c-0.139-0.15-0.348-0.227-0.623-0.227c-0.224,0-0.435,0.07-0.638,0.201c-0.2,0.13-0.357,0.312-0.471,0.531
				C34.052,434.962,33.988,435.468,33.988,436.195"/>
		</g>
		<g>
			<path fill="#5A4A42" d="M-44.981,435.659c-0.001-0.004-0.001-0.006-0.001-0.006S-44.982,435.655-44.981,435.659z"/>
			<path fill="#5A4A42" d="M-44.896,436.201c0.001,0,0.001,0,0.001,0c-0.032-0.155-0.058-0.308-0.077-0.459
				C-44.952,435.895-44.926,436.049-44.896,436.201z"/>
			<path fill="#5A4A42" d="M-44.335,437.775c-0.004-0.006-0.006-0.014-0.01-0.021C-44.342,437.762-44.339,437.77-44.335,437.775z"/>
			<path fill="#5A4A42" d="M-44.388,437.671c-0.015-0.028-0.029-0.059-0.042-0.087C-44.417,437.615-44.403,437.643-44.388,437.671z"
				/>
			<path fill="#5A4A42" d="M-44.738,436.808c0.083,0.263,0.183,0.517,0.299,0.759c-0.118-0.248-0.216-0.503-0.296-0.759
				C-44.737,436.808-44.737,436.808-44.738,436.808z"/>
			<path fill="#5A4A42" d="M-38.415,429.158c0.328,0,0.57,0.026,0.847,0.073l0.078-0.499c0,0-0.765-0.236-1.772-0.153l-0.079-0.272
				c0.313-0.064,0.548-0.343,0.548-0.676c0-0.381-0.31-0.689-0.69-0.689c-0.382,0-0.691,0.309-0.691,0.689
				c0,0.333,0.234,0.611,0.546,0.676l0.088,0.303c-1.069,0.146-1.92,0.565-1.92,0.565l0.15,0.462
				c0.647-0.217,1.207-0.348,1.716-0.402C-39.097,429.181-38.721,429.158-38.415,429.158z"/>
			<path fill="#5A4A42" d="M-44.348,431.684l0.003-0.006c0.026-0.032,0.05-0.064,0.075-0.094l-0.205-0.147l-0.319-0.233
				c-0.018,0.025-0.52,0.487-0.917,1.341c-0.016-0.026-0.037-0.054-0.059-0.079c-0.119-0.13-0.284-0.195-0.497-0.191
				c-0.002,0-0.005,0-0.01,0c-0.129,0-0.22-0.045-0.278-0.097c0.058-0.075,0.094-0.169,0.094-0.271c0-0.241-0.198-0.438-0.438-0.438
				c-0.242,0-0.437,0.196-0.437,0.438c0,0.242,0.195,0.438,0.437,0.438c0.038,0,0.073-0.006,0.109-0.014
				c0.108,0.119,0.278,0.225,0.528,0.219c0.129-0.001,0.224,0.031,0.287,0.102c0.072,0.079,0.096,0.193,0.104,0.279
				c-0.001,0.001-0.001,0.004-0.002,0.004c-0.284,0.778-0.203,1.746-0.203,1.746l0.691,0.027c0.015-0.352,0.066-0.969,0.243-1.459
				C-44.796,432.3-44.365,431.707-44.348,431.684z"/>
			<path fill="#5A4A42" d="M-32.396,429.736c-0.242,0-0.439,0.195-0.439,0.438c0,0.037,0.006,0.072,0.016,0.108
				c-0.12,0.108-0.224,0.28-0.22,0.531c0.001,0.128-0.032,0.222-0.102,0.284c-0.056,0.05-0.124,0.075-0.192,0.093
				c-0.516-0.722-1.15-1.162-1.15-1.162l-0.495,0.533c0.376,0.339,0.758,0.768,1.13,1.302c0.258,0.368,0.523,0.844,0.743,1.316
				l0.671-0.317c0,0-0.307-0.755-0.737-1.435c0.075-0.025,0.151-0.065,0.217-0.124c0.132-0.118,0.195-0.286,0.191-0.495
				c-0.001-0.137,0.044-0.23,0.098-0.29c0.073,0.057,0.168,0.093,0.271,0.093c0.241,0,0.438-0.196,0.438-0.438
				C-31.958,429.932-32.154,429.736-32.396,429.736z"/>
			<path fill="#5A4A42" d="M-34.134,435.757c-0.923,0.449-2.439,1.042-4.438,1.322c-0.784,0.107-1.544,0.147-2.244,0.147
				c-0.91,0-1.713-0.067-2.331-0.146c-0.704-0.089-1.253-0.197-1.59-0.273c0.081,0.256,0.178,0.511,0.296,0.759
				c0.002,0.006,0.005,0.013,0.009,0.018c0.013,0.028,0.028,0.059,0.042,0.087c0.014,0.029,0.028,0.058,0.043,0.083
				c0.003,0.008,0.006,0.016,0.01,0.021c0.199,0.373,0.437,0.717,0.708,1.014c0.942,1.031,1.902,1.192,1.91,1.195l0.016,0.002
				l0.013,0.005c0.009,0.003,0.859,0.277,2.154,0.277c1.272,0,2.521-0.257,3.712-0.763c0.881-0.451,1.715-1.137,2.129-1.747
				c0.319-0.473,0.551-0.978,0.688-1.5c0.071-0.28,0.129-0.726,0.096-1.195C-33.17,435.238-33.58,435.487-34.134,435.757z"/>
			<path fill="#5A4A42" d="M-44.051,431.9c-0.027,0.039-0.427,0.605-0.742,1.475c-0.237,0.652-0.227,1.6-0.227,1.61v0.001
				c0,0.223,0.012,0.443,0.038,0.661c0,0,0,0.008,0.001,0.012c0.002,0.028,0.007,0.055,0.01,0.083
				c0.02,0.151,0.045,0.304,0.077,0.459c0.459,0.117,3.192,0.754,6.246,0.328c1.917-0.266,3.369-0.831,4.252-1.26
				c0.733-0.356,1.205-0.679,1.388-0.811c-0.181-0.672-0.681-1.727-1.139-2.385c-1.313-1.875-2.729-2.356-3.455-2.476
				c-0.276-0.046-0.498-0.071-0.813-0.071c-0.293,0-0.655,0.022-1.141,0.073c-0.485,0.052-1.027,0.18-1.656,0.391
				c-0.882,0.294-1.68,0.759-2.308,1.341l-0.021,0.02C-43.634,431.437-43.828,431.617-44.051,431.9z M-36.023,431.465
				c0.628,0,1.14,0.51,1.14,1.141c0,0.629-0.512,1.141-1.14,1.141c-0.629,0-1.141-0.512-1.141-1.141
				C-37.164,431.975-36.652,431.465-36.023,431.465z M-41.417,431.42c1.02,0,1.844,0.825,1.844,1.842
				c0,1.02-0.824,1.842-1.844,1.842c-1.017,0-1.842-0.822-1.842-1.842C-43.259,432.245-42.434,431.42-41.417,431.42z"/>
		</g>
	</g>
</g>
</svg>
