<svg id="Capa_1" enable-background="new 0 0 512 512" height="512" viewBox="0 0 512 512" width="512" xmlns="http://www.w3.org/2000/svg"><g><g><path d="m398.669 417.046v72.867c0 12.199-9.885 22.083-22.073 22.083h-53.666c-8.992 0-17.09-5.45-20.459-13.792l-4.81-11.864-28.071-69.295h129.079z" fill="#ffcbbe"/><path d="m242.411 417.046-28.071 69.294-4.81 11.864c-3.369 8.342-11.468 13.792-20.459 13.792h-53.666c-12.188 0-22.073-9.885-22.073-22.083v-72.867z" fill="#ffcbbe"/><g fill="#eaac9d"><path d="m166.151 512h-30.75c-12.188 0-22.073-9.885-22.073-22.083v-72.867h30.74v72.867c0 12.198 9.885 22.083 22.083 22.083z"/><g><path d="m113.331 417.046h129.08l-28.071 69.294c-10.798-.233-21.606-.568-32.414-.995-25.524-1.005-49.119-9.54-68.594-23.453v-44.846z"/><path d="m398.669 417.046v44.846c-19.475 13.914-43.07 22.449-68.594 23.453-10.808.426-21.617.761-32.414.995l-28.071-69.295h129.079z"/></g><path d="m348.037 511.996h-25.107c-8.992 0-17.09-5.45-20.459-13.792l-4.81-11.864-28.071-69.295h25.107l28.071 69.295 4.81 11.864c3.369 8.342 11.468 13.792 20.459 13.792z"/></g><g><path d="m452.682 300.821c-.07 16.035-.429 32.081-1.055 48.115-2.609 65.924-55.628 118.758-121.552 121.344-49.379 1.948-98.77 1.948-148.149 0-65.924-2.585-118.943-55.42-121.552-121.344-.626-16.034-.986-32.081-1.055-48.115-.452-97.321 75.408-177.343 171.453-183.128v34.632c0 7.954 6.446 14.411 14.4 14.411h21.658c7.953 0 14.4-6.458 14.4-14.411v-34.632c96.044 5.786 171.904 85.808 171.452 183.128z" fill="#ffcbbe"/></g><g><path d="m211.664 119.862c-42.121 29.113-71.721 99.512-71.501 181.378.035 17.113.267 34.214.661 51.327 1.229 52.741 20.278 97.634 47.211 117.946-2.041-.07-4.07-.151-6.11-.232-65.912-2.585-118.944-55.42-121.552-121.344-.626-16.034-.986-32.081-1.055-48.115-.417-90.77 65.542-166.491 152.346-180.96z" fill="#eaac9d"/></g><g><path d="m86.994 315.303s-25.195-38.288-28.781-101.512c-.967-17.046 13.769-30.736 30.693-28.486 24.733 3.287 61.609 12.722 100.029 38.773 0-.001-75.604 18.529-101.941 91.225" fill="#eaac9d"/><path d="m425.006 315.303s25.195-38.288 28.781-101.512c.967-17.046-13.769-30.736-30.693-28.486-24.733 3.287-61.609 12.722-100.029 38.773 0-.001 82.645 19.879 101.941 91.225z" fill="#ffcbbe"/></g><g fill="#ffddce"><path d="m412.941 263.406s8.047-12.229 9.192-32.422c.309-5.444-4.398-9.817-9.803-9.098-7.9 1.05-19.677 4.063-31.949 12.384"/><path d="m99.059 263.406s-8.047-12.229-9.192-32.422c-.309-5.444 4.398-9.817 9.803-9.098 7.9 1.05 19.677 4.063 31.949 12.384"/></g><path d="m282.114 307.206c-17.409-.571-34.818-.571-52.228 0-25.467.835-45.726 21.48-46.362 46.952-.161 6.427-.161 12.855 0 19.282.636 25.472 20.896 46.117 46.362 46.952 17.409.571 34.818.571 52.228 0 25.467-.835 45.726-21.48 46.362-46.952.161-6.427.161-12.855 0-19.282-.636-25.472-20.896-46.117-46.362-46.952z" fill="#ffddce"/><g fill="#407093"><path d="m236.877 380.279c-4.204 0-7.611-3.408-7.611-7.611v-16.18c0-4.204 3.407-7.611 7.611-7.611s7.611 3.408 7.611 7.611v16.18c.001 4.204-3.407 7.611-7.611 7.611z"/><path d="m275.123 380.279c-4.204 0-7.612-3.408-7.612-7.611v-16.18c0-4.204 3.407-7.611 7.612-7.611s7.612 3.408 7.612 7.611v16.18c-.001 4.204-3.408 7.611-7.612 7.611z"/></g><g fill="#365e7d"><path d="m150.565 309.658c-7.125 0-12.921 9.622-12.921 21.45s5.796 21.451 12.921 21.451 12.922-9.623 12.922-21.451-5.797-21.45-12.922-21.45z"/><path d="m361.435 309.658c-7.125 0-12.922 9.622-12.922 21.45s5.797 21.451 12.922 21.451 12.921-9.623 12.921-21.451-5.796-21.45-12.921-21.45z"/></g></g><circle cx="170.49" cy="82.848" fill="#ffd064" r="75.236"/><path d="m170.491 165.696c-45.683 0-82.848-37.166-82.848-82.848s37.165-82.848 82.848-82.848c45.682 0 82.847 37.166 82.847 82.848s-37.166 82.848-82.847 82.848zm0-150.473c-37.288 0-67.625 30.336-67.625 67.625s30.337 67.625 67.625 67.625 67.624-30.336 67.624-67.625-30.336-67.625-67.624-67.625z" fill="#ffc250"/><g fill="#e49542"><path d="m168.487 131.81c-11.054 0-17.833-.841-28.96-6.837-3.701-1.994-5.084-6.611-3.09-10.311 1.994-3.701 6.61-5.085 10.311-3.09 8.708 4.692 12.77 5.066 23.06 5.011 8.913-.049 19.064-4.955 20.322-13.952.825-5.9-3.298-10.622-11.311-12.955-15.439-4.496-24.319-7.997-30.647-12.085-7.231-4.67-10.816-13.015-9.355-21.777 1.713-10.271 9.902-18.665 20.864-21.385 20.93-5.192 34.935 5.198 35.521 5.643 3.347 2.543 3.999 7.318 1.457 10.665-2.528 3.327-7.263 3.992-10.606 1.502-.495-.354-9.195-6.388-22.708-3.035-6.149 1.525-8.945 5.708-9.513 9.112-.271 1.621-.292 4.619 2.599 6.487 6.205 4.008 16.95 7.434 26.643 10.256 15.34 4.466 24.028 16.115 22.132 29.679-1.868 13.365-14.599 26.954-35.315 27.068-.476.003-.945.004-1.404.004z"/><path d="m169.85 143.972c-4.204 0-7.611-3.408-7.611-7.611v-12.166c0-4.204 3.407-7.611 7.611-7.611s7.611 3.408 7.611 7.611v12.166c.001 4.203-3.406 7.611-7.611 7.611z"/><path d="m169.85 48.24c-4.204 0-7.611-3.408-7.611-7.611v-11.294c0-4.204 3.407-7.611 7.611-7.611s7.611 3.408 7.611 7.611v11.293c.001 4.204-3.406 7.612-7.611 7.612z"/></g></g></svg>