<?xml version="1.0" encoding="iso-8859-1"?>
<!-- Generator: Adobe Illustrator 19.0.0, SVG Export Plug-In . SVG Version: 6.00 Build 0)  -->
<svg version="1.1" id="Capa_1" xmlns="http://www.w3.org/2000/svg" xmlns:xlink="http://www.w3.org/1999/xlink" x="0px" y="0px"
	 viewBox="0 0 476.241 476.241" style="enable-background:new 0 0 476.241 476.241;" xml:space="preserve">
<path style="fill:#FFC67B;" d="M7.999,332.475l135.768,135.768l248.896-248.904l11.32-147.08l-55.264,4.256
	c-8.413,11.911-13.975,25.597-16.256,40c13.067-1.944,25.236,7.072,27.18,20.139c1.944,13.067-7.073,25.236-20.139,27.18
	c-13.067,1.944-25.236-7.072-27.18-20.139c-1.119-7.524,1.406-15.131,6.803-20.492c3.617-3.596,8.291-5.94,13.336-6.688
	c2.281-14.403,7.843-28.089,16.256-40l-91.816,7.064L7.999,332.475z"/>
<path style="fill:#231F20;" d="M467.759,8.483c-19.264-19.264-62.824-4.752-101.336,33.752
	c-8.212,8.177-15.672,17.077-22.288,26.592l-87.848,6.76c-1.903,0.147-3.691,0.97-5.04,2.32L2.343,326.819
	c-3.123,3.124-3.123,8.188,0,11.312l135.76,135.768c3.124,3.123,8.188,3.123,11.312,0l248.912-248.904
	c1.35-1.349,2.173-3.137,2.32-5.04l6.768-88.2c0.393-0.13,0.773-0.296,1.136-0.496c9.089-6.391,17.601-13.565,25.44-21.44
	C472.51,71.307,487.023,27.739,467.759,8.483z M324.783,128.827c0.096-0.096,0.208-0.16,0.304-0.248
	c0.968,5.642,3.61,10.863,7.584,14.984c3.178,3.07,8.242,2.982,11.312-0.196c2.994-3.1,2.994-8.015,0-11.116
	c-1.891-2.042-3.09-4.629-3.424-7.392c2.587,0.727,4.944,2.104,6.848,4c6.249,6.247,6.251,16.378,0.003,22.627
	c-6.247,6.249-16.378,6.251-22.627,0.003c-6.249-6.247-6.251-16.378-0.003-22.627c0.001-0.001,0.002-0.002,0.003-0.003V128.827z
	 M384.918,215.771l-241.16,241.16L19.31,332.475L260.462,91.331l73.544-5.664c-4.019,7.709-6.943,15.94-8.688,24.456
	c-4.451,1.554-8.499,4.082-11.848,7.4c-12.499,12.495-12.502,32.756-0.007,45.255c12.495,12.499,32.756,12.502,45.255,0.007
	c12.499-12.495,12.502-32.756,0.007-45.255c-0.002-0.002-0.005-0.005-0.007-0.007c-4.486-4.524-10.232-7.591-16.488-8.8
	c2.59-8.656,6.336-16.922,11.136-24.576l41.92-3.2L384.918,215.771z M422.694,98.491c-4.348,4.306-8.914,8.386-13.68,12.224
	l2.912-37.84c0.34-4.405-2.955-8.252-7.361-8.592c-0.41-0.032-0.822-0.032-1.231,0l-37.912,2.92
	c3.868-4.759,7.978-9.317,12.312-13.656c32.184-32.184,68.088-44.36,78.712-33.752s-1.576,46.52-33.752,78.704V98.491z"/>
<g>
</g>
<g>
</g>
<g>
</g>
<g>
</g>
<g>
</g>
<g>
</g>
<g>
</g>
<g>
</g>
<g>
</g>
<g>
</g>
<g>
</g>
<g>
</g>
<g>
</g>
<g>
</g>
<g>
</g>
</svg>
