<svg id="Layer_1" enable-background="new 0 0 512 512" height="512" viewBox="0 0 512 512" width="512" xmlns="http://www.w3.org/2000/svg"><g><path d="m504.5 414.219v30c0 12.029-9.752 21.781-21.781 21.781h-453.438c-12.029 0-21.781-9.752-21.781-21.781v-30z" fill="#ffc35a"/><path d="m504.5 92.78v321.44c0 12.03-9.75 21.78-21.78 21.78h-453.44c-12.03 0-21.78-9.75-21.78-21.78v-321.44c0-12.03 9.75-21.78 21.78-21.78h453.44c12.03 0 21.78 9.75 21.78 21.78z" fill="#fff683"/><path d="m504.5 92.78v321.44c0 12.03-9.75 21.78-21.78 21.78h-453.44c-12.03 0-21.78-9.75-21.78-21.78v-5.22h447.72c12.03 0 21.78-9.75 21.78-21.78v-294.44c0-12.03-9.75-21.78-21.78-21.78h27.5c12.03 0 21.78 9.75 21.78 21.78z" fill="#ffe45c"/><path d="m504.5 92.78v38.62h-497v-38.62c0-12.03 9.75-21.78 21.78-21.78h453.44c12.03 0 21.78 9.75 21.78 21.78z" fill="#ff6986"/><path d="m504.5 92.78v38.62h-27.5v-38.62c0-12.03-9.75-21.78-21.78-21.78h27.5c12.03 0 21.78 9.75 21.78 21.78z" fill="#ea3487"/><g fill="#ffc35a"><g><path d="m61.926 183.773h35.79v35.79h-35.79z"/><path d="m149.997 183.714h35.79v35.79h-35.79z"/><path d="m238.069 183.803h35.79v35.79h-35.79z"/><path d="m326.14 183.743h35.79v35.79h-35.79z"/><path d="m414.212 183.743h35.79v35.79h-35.79z"/></g><g><path d="m61.962 264.575h35.79v35.79h-35.79z"/><path d="m150.033 264.516h35.79v35.79h-35.79z"/><path d="m238.105 264.605h35.79v35.79h-35.79z"/><path d="m326.176 264.545h35.79v35.79h-35.79z"/><path d="m414.248 264.545h35.79v35.79h-35.79z"/></g><g><path d="m61.926 345.526h35.79v35.79h-35.79z"/><path d="m149.997 345.466h35.79v35.79h-35.79z"/><path d="m238.069 345.556h35.79v35.79h-35.79z"/><path d="m326.14 345.496h35.79v35.79h-35.79z"/><path d="m414.212 345.496h35.79v35.79h-35.79z"/></g></g></g><g><path d="m482.719 63.5h-16.441v-17.5c0-4.142-3.357-7.5-7.5-7.5s-7.5 3.358-7.5 7.5v17.5h-52.303v-17.5c0-4.142-3.357-7.5-7.5-7.5s-7.5 3.358-7.5 7.5v17.5h-52.302v-17.5c0-4.142-3.357-7.5-7.5-7.5s-7.5 3.358-7.5 7.5v17.5h-52.302v-17.5c0-4.142-3.357-7.5-7.5-7.5s-7.5 3.358-7.5 7.5v17.5h-52.303v-17.5c0-4.142-3.357-7.5-7.5-7.5s-7.5 3.358-7.5 7.5v17.5h-52.302v-17.5c0-4.142-3.357-7.5-7.5-7.5s-7.5 3.358-7.5 7.5v17.5h-52.302v-17.5c0-4.142-3.357-7.5-7.5-7.5s-7.5 3.358-7.5 7.5v17.5h-18.183c-16.145 0-29.281 13.136-29.281 29.281v351.438c0 16.145 13.136 29.281 29.281 29.281h453.438c16.146 0 29.281-13.136 29.281-29.281v-351.438c0-16.145-13.136-29.281-29.281-29.281zm-317.855 380h317.854c5.182 0 10.054-1.353 14.281-3.725v4.444c0 7.875-6.406 14.281-14.281 14.281h-453.437c-7.875 0-14.281-6.407-14.281-14.281v-4.444c4.227 2.372 9.099 3.725 14.281 3.725h101.244c4.143 0 7.5-3.358 7.5-7.5s-3.357-7.5-7.5-7.5h-101.244c-7.875 0-14.281-6.407-14.281-14.281v-275.321h314.086c4.143 0 7.5-3.358 7.5-7.5s-3.357-7.5-7.5-7.5h-314.086v-31.117c0-7.874 6.406-14.281 14.281-14.281h18.183v17.995c0 4.142 3.357 7.5 7.5 7.5s7.5-3.358 7.5-7.5v-17.995h52.303v17.995c0 4.142 3.357 7.5 7.5 7.5s7.5-3.358 7.5-7.5v-17.995h52.302v17.995c0 4.142 3.357 7.5 7.5 7.5s7.5-3.358 7.5-7.5v-17.995h52.303v17.995c0 4.142 3.357 7.5 7.5 7.5s7.5-3.358 7.5-7.5v-17.995h52.302v17.995c0 4.142 3.357 7.5 7.5 7.5s7.5-3.358 7.5-7.5v-17.995h52.302v17.995c0 4.142 3.357 7.5 7.5 7.5s7.5-3.358 7.5-7.5v-17.995h52.303v17.995c0 4.142 3.357 7.5 7.5 7.5s7.5-3.358 7.5-7.5v-17.995h16.441c7.875 0 14.281 6.407 14.281 14.281v31.117h-132.526c-4.143 0-7.5 3.358-7.5 7.5s3.357 7.5 7.5 7.5h132.525v275.321c0 7.875-6.406 14.281-14.281 14.281h-317.855c-4.143 0-7.5 3.358-7.5 7.5s3.358 7.5 7.5 7.5z"/><path d="m61.926 227.063h35.79c4.143 0 7.5-3.358 7.5-7.5v-35.79c0-4.142-3.357-7.5-7.5-7.5h-35.79c-4.143 0-7.5 3.358-7.5 7.5v35.79c0 4.143 3.357 7.5 7.5 7.5zm7.5-35.79h20.79v20.79h-20.79z"/><path d="m149.997 227.004h35.79c4.143 0 7.5-3.358 7.5-7.5v-35.79c0-4.142-3.357-7.5-7.5-7.5h-35.79c-4.143 0-7.5 3.358-7.5 7.5v35.79c0 4.142 3.357 7.5 7.5 7.5zm7.5-35.79h20.79v20.79h-20.79z"/><path d="m238.068 227.093h35.791c4.143 0 7.5-3.358 7.5-7.5v-35.79c0-4.142-3.357-7.5-7.5-7.5h-35.791c-4.143 0-7.5 3.358-7.5 7.5v35.79c0 4.142 3.358 7.5 7.5 7.5zm7.5-35.79h20.791v20.79h-20.791z"/><path d="m326.141 227.034h35.79c4.143 0 7.5-3.358 7.5-7.5v-35.79c0-4.142-3.357-7.5-7.5-7.5h-35.79c-4.143 0-7.5 3.358-7.5 7.5v35.79c0 4.142 3.357 7.5 7.5 7.5zm7.5-35.79h20.79v20.79h-20.79z"/><path d="m414.212 227.034h35.79c4.143 0 7.5-3.358 7.5-7.5v-35.79c0-4.142-3.357-7.5-7.5-7.5h-35.79c-4.143 0-7.5 3.358-7.5 7.5v35.79c0 4.142 3.357 7.5 7.5 7.5zm7.5-35.79h20.79v20.79h-20.79z"/><path d="m97.752 257.075h-35.79c-4.143 0-7.5 3.358-7.5 7.5v35.79c0 4.142 3.357 7.5 7.5 7.5h35.79c4.143 0 7.5-3.358 7.5-7.5v-35.79c0-4.142-3.357-7.5-7.5-7.5zm-7.5 35.79h-20.79v-20.79h20.79z"/><path d="m185.823 257.016h-35.79c-4.143 0-7.5 3.358-7.5 7.5v35.79c0 4.142 3.357 7.5 7.5 7.5h35.79c4.143 0 7.5-3.358 7.5-7.5v-35.79c0-4.142-3.357-7.5-7.5-7.5zm-7.5 35.79h-20.79v-20.79h20.79z"/><path d="m273.896 257.105h-35.791c-4.143 0-7.5 3.358-7.5 7.5v35.79c0 4.142 3.357 7.5 7.5 7.5h35.791c4.143 0 7.5-3.358 7.5-7.5v-35.79c0-4.142-3.358-7.5-7.5-7.5zm-7.5 35.79h-20.791v-20.79h20.791z"/><path d="m361.967 257.045h-35.79c-4.143 0-7.5 3.358-7.5 7.5v35.79c0 4.142 3.357 7.5 7.5 7.5h35.79c4.143 0 7.5-3.358 7.5-7.5v-35.79c0-4.142-3.358-7.5-7.5-7.5zm-7.5 35.79h-20.79v-20.79h20.79z"/><path d="m450.038 257.045h-35.79c-4.143 0-7.5 3.358-7.5 7.5v35.79c0 4.142 3.357 7.5 7.5 7.5h35.79c4.143 0 7.5-3.358 7.5-7.5v-35.79c0-4.142-3.357-7.5-7.5-7.5zm-7.5 35.79h-20.79v-20.79h20.79z"/><path d="m97.716 338.026h-35.79c-4.143 0-7.5 3.358-7.5 7.5v35.79c0 4.142 3.357 7.5 7.5 7.5h35.79c4.143 0 7.5-3.358 7.5-7.5v-35.79c0-4.142-3.358-7.5-7.5-7.5zm-7.5 35.79h-20.79v-20.79h20.79z"/><path d="m193.287 381.256v-35.79c0-4.142-3.357-7.5-7.5-7.5h-35.79c-4.143 0-7.5 3.358-7.5 7.5v35.79c0 4.142 3.357 7.5 7.5 7.5h35.79c4.143 0 7.5-3.358 7.5-7.5zm-15-7.5h-20.79v-20.79h20.79z"/><path d="m238.068 388.846h35.791c4.143 0 7.5-3.358 7.5-7.5v-35.79c0-4.142-3.357-7.5-7.5-7.5h-35.791c-4.143 0-7.5 3.358-7.5 7.5v35.79c0 4.142 3.358 7.5 7.5 7.5zm7.5-35.79h20.791v20.79h-20.791z"/><path d="m326.141 388.786h35.79c4.143 0 7.5-3.358 7.5-7.5v-35.79c0-4.142-3.357-7.5-7.5-7.5h-35.79c-4.143 0-7.5 3.358-7.5 7.5v35.79c0 4.142 3.357 7.5 7.5 7.5zm7.5-35.79h20.79v20.79h-20.79z"/><path d="m414.212 388.786h35.79c4.143 0 7.5-3.358 7.5-7.5v-35.79c0-4.142-3.357-7.5-7.5-7.5h-35.79c-4.143 0-7.5 3.358-7.5 7.5v35.79c0 4.142 3.357 7.5 7.5 7.5zm7.5-35.79h20.79v20.79h-20.79z"/></g></svg>