<?xml version="1.0" encoding="iso-8859-1"?>
<!-- Generator: Adobe Illustrator 21.1.0, SVG Export Plug-In . SVG Version: 6.00 Build 0)  -->
<svg version="1.1" id="Layer_1" xmlns="http://www.w3.org/2000/svg" xmlns:xlink="http://www.w3.org/1999/xlink" x="0px" y="0px"
	 viewBox="0 0 24 24" enable-background="new 0 0 24 24" xml:space="preserve">
<g>
	<path fill="#303C42" d="M23.9077148,16.1196289L19.8388672,2.5566406c-0.3393555-1.1342773-1.574707-1.8056641-2.7192383-1.4648438
		l-5.156189,1.546875C11.7924805,1.7080688,10.9793091,1,10,1C8.8969727,1,8,1.8969727,8,3H2C0.8969727,3,0,3.8969727,0,5v15
		c0,1.1030273,0.8969727,2,2,2h4.4221191c0.3934326,0.6132813,1.0697021,1,1.8308105,1
		c0.2128906,0,0.4243164-0.03125,0.6274414-0.0922852l13.5629883-4.0688477C23.3745117,18.5600586,24,17.7192383,24,16.7470703
		C24,16.5341797,23.96875,16.3227539,23.9077148,16.1196289z"/>
	<circle fill="#F37021" cx="10" cy="3" r="1"/>
	<path opacity="0.1" fill="#010101" d="M10.4082031,2.0917969C10.4649048,2.2171631,10.5,2.3537598,10.5,2.5
		c0,0.5512695-0.4487305,1-1,1c-0.1462402,0-0.2828369-0.0350952-0.4082031-0.0917969C9.2487793,3.7553711,9.5949707,4,10,4
		c0.5512695,0,1-0.4487305,1-1C11,2.5949707,10.7553711,2.2487793,10.4082031,2.0917969z"/>
	<path fill="#FFCB29" d="M1,20V5c0-0.5512695,0.4487305-1,1-1h5.4269409L3.5566406,5.1611328
		C2.6254883,5.4399414,2,6.2807617,2,7.2529297c0,0.2128906,0.03125,0.4243164,0.0922852,0.6274414L6.0281372,21H2
		C1.4487305,21,1,20.5512695,1,20z"/>
	<path fill="#FFFFFF" d="M22.15625,17.8808594L8.5927734,21.9501953c-0.6074219,0.1826172-1.2919922-0.1860352-1.4736328-0.7939453
		L3.0498047,7.5927734C3.0166016,7.4824219,3,7.3681641,3,7.2529297C3,6.734375,3.3466797,6.2680664,3.84375,6.1191406
		l4.9937744-1.4981689C9.1658325,4.8571777,9.5654297,5,10,5c0.1793213,0,0.3499146-0.031311,0.5153809-0.0757446
		l0.5686035,0.8530884C11.1801758,5.921875,11.3388672,6,11.5004883,6c0.0952148,0,0.1914063-0.0273438,0.2768555-0.0839844
		c0.2299805-0.1533203,0.2919922-0.4633789,0.1386719-0.6933594l-0.5261841-0.7893677
		c0.2070923-0.2008667,0.3676147-0.4462891,0.4729004-0.7202759l5.5435181-1.663208
		c0.6098633-0.1821289,1.2929688,0.1870117,1.4746094,0.7939453l4.0693359,13.5634766
		C22.9833984,16.5175781,23,16.6318359,23,16.7470703C23,17.265625,22.6533203,17.7319336,22.15625,17.8808594z"/>
	<linearGradient id="SVGID_1_" gradientUnits="userSpaceOnUse" x1="10.1145782" y1="3.3439178" x2="23.502903" y2="16.7322426">
		<stop  offset="0" style="stop-color:#010101;stop-opacity:0.1"/>
		<stop  offset="1" style="stop-color:#010101;stop-opacity:0"/>
	</linearGradient>
	<path fill="url(#SVGID_1_)" d="M22.15625,17.8808594C22.6533203,17.7319336,23,17.265625,23,16.7470703
		c0-0.1152344-0.0166016-0.2294922-0.0498047-0.3398438l-1.1923218-3.9741211l-8.991272-8.991272l-0.9038696,0.2711792
		c-0.1052856,0.2739868-0.2658081,0.5194092-0.4729004,0.7202759l0.5261841,0.7893677
		c0.1533203,0.2299805,0.0913086,0.5400391-0.1386719,0.6933594C11.6918945,5.9726563,11.5957031,6,11.5004883,6
		c-0.1616211,0-0.3203125-0.078125-0.4165039-0.2226563l-0.5686035-0.8530884C10.3499146,4.968689,10.1793213,5,10,5
		C9.5654297,5,9.1658325,4.8571777,8.8375244,4.6209717l13.2734985,13.2734375L22.15625,17.8808594z"/>
	<linearGradient id="SVGID_2_" gradientUnits="userSpaceOnUse" x1="-0.8942915" y1="6.4745007" x2="23.6763763" y2="17.9319916">
		<stop  offset="0" style="stop-color:#FFFFFF;stop-opacity:0.2"/>
		<stop  offset="1" style="stop-color:#FFFFFF;stop-opacity:0"/>
	</linearGradient>
	<path fill="url(#SVGID_2_)" d="M23.9077148,16.1196289L19.8388672,2.5566406
		c-0.3393555-1.1342773-1.574707-1.8056641-2.7192383-1.4648438l-5.156189,1.546875C11.7924805,1.7080688,10.9793091,1,10,1
		C8.8969727,1,8,1.8969727,8,3H2C0.8969727,3,0,3.8969727,0,5v15c0,1.1030273,0.8969727,2,2,2h4.4221191
		c0.3934326,0.6132813,1.0697021,1,1.8308105,1c0.2128906,0,0.4243164-0.03125,0.6274414-0.0922852l13.5629883-4.0688477
		C23.3745117,18.5600586,24,17.7192383,24,16.7470703C24,16.5341797,23.96875,16.3227539,23.9077148,16.1196289z"/>
</g>
<g>
</g>
<g>
</g>
<g>
</g>
<g>
</g>
<g>
</g>
<g>
</g>
<g>
</g>
<g>
</g>
<g>
</g>
<g>
</g>
<g>
</g>
<g>
</g>
<g>
</g>
<g>
</g>
<g>
</g>
</svg>
